<svg width="8" height="14" viewBox="0 0 8 14" fill="none" xmlns="http://www.w3.org/2000/svg">
<path d="M7.28408 0.00291293L5.4686 0C3.42896 0 2.11086 1.35233 2.11086 3.44542V5.03399H0.285468C0.127732 5.03399 0 5.16187 0 5.3196V7.62126C0 7.77899 0.127878 7.90672 0.285468 7.90672H2.11086V13.7145C2.11086 13.8723 2.23859 14 2.39633 14H4.77794C4.93568 14 5.06341 13.8721 5.06341 13.7145V7.90672H7.19772C7.35545 7.90672 7.48318 7.77899 7.48318 7.62126L7.48406 5.3196C7.48406 5.24386 7.45391 5.17133 7.40046 5.11773C7.347 5.06414 7.27418 5.03399 7.19844 5.03399H5.06341V3.68734C5.06341 3.04008 5.21765 2.71151 6.0608 2.71151L7.28379 2.71107C7.44138 2.71107 7.56911 2.58319 7.56911 2.4256V0.288381C7.56911 0.130936 7.44153 0.00320423 7.28408 0.00291293Z" fill="#828181"/>
</svg>
