<svg width="14" height="14" viewBox="0 0 14 14" fill="none" xmlns="http://www.w3.org/2000/svg">
<path d="M7.13781 14C7.09145 14 7.04509 14 6.99842 13.9998C5.90103 14.0025 4.88707 13.9746 3.90098 13.9146C2.99693 13.8595 2.1717 13.5471 1.51438 13.0111C0.880129 12.494 0.447007 11.7947 0.227082 10.9329C0.0356752 10.1827 0.025528 9.44619 0.0158081 8.73386C0.00875856 8.22276 0.00149537 7.61714 0 7.00126C0.00149537 6.38282 0.00875856 5.7772 0.0158081 5.2661C0.025528 4.55388 0.0356752 3.81742 0.227082 3.06706C0.447007 2.2053 0.880129 1.50601 1.51438 0.988825C2.1717 0.452843 2.99693 0.140418 3.90109 0.0854102C4.88717 0.0254888 5.90135 -0.00249595 7.00109 0.000174347C8.09879 -0.00217551 9.11244 0.0254888 10.0985 0.0854102C11.0026 0.140418 11.8278 0.452843 12.4851 0.988825C13.1195 1.50601 13.5525 2.2053 13.7724 3.06706C13.9638 3.81731 13.974 4.55388 13.9837 5.2661C13.9907 5.7772 13.9981 6.38282 13.9995 6.9987V7.00126C13.9981 7.61714 13.9907 8.22276 13.9837 8.73386C13.974 9.44608 13.9639 10.1825 13.7724 10.9329C13.5525 11.7947 13.1195 12.494 12.4851 13.0111C11.8278 13.5471 11.0026 13.8595 10.0985 13.9146C9.1542 13.972 8.18413 14 7.13781 14ZM6.99842 12.906C8.07796 12.9086 9.06918 12.8814 10.0321 12.8228C10.7157 12.7813 11.3084 12.5594 11.7939 12.1635C12.2428 11.7974 12.5519 11.2924 12.7126 10.6625C12.872 10.0379 12.8812 9.36736 12.89 8.7189C12.897 8.21123 12.9043 7.60988 12.9058 6.99998C12.9043 6.38998 12.897 5.78873 12.89 5.28106C12.8812 4.6326 12.872 3.96204 12.7126 3.3374C12.5519 2.70743 12.2428 2.20242 11.7939 1.83638C11.3084 1.44053 10.7157 1.21868 10.0321 1.17713C9.06918 1.11849 8.07796 1.09147 7.00098 1.09382C5.92165 1.09126 4.93033 1.11849 3.96742 1.17713C3.28382 1.21868 2.69112 1.44053 2.20556 1.83638C1.75673 2.20242 1.44762 2.70743 1.28687 3.3374C1.12751 3.96204 1.11832 4.6325 1.10945 5.28106C1.10251 5.78916 1.09525 6.39083 1.09375 7.00126C1.09525 7.60902 1.10251 8.2108 1.10945 8.7189C1.11832 9.36736 1.12751 10.0379 1.28687 10.6625C1.44762 11.2924 1.75673 11.7974 2.20556 12.1635C2.69112 12.5593 3.28382 12.7812 3.96742 12.8227C4.93033 12.8814 5.92186 12.9087 6.99842 12.906ZM6.97235 10.418C5.08777 10.418 3.55438 8.88468 3.55438 6.99998C3.55438 5.11529 5.08777 3.582 6.97235 3.582C8.85705 3.582 10.3903 5.11529 10.3903 6.99998C10.3903 8.88468 8.85705 10.418 6.97235 10.418ZM6.97235 4.67576C5.69083 4.67576 4.64813 5.71845 4.64813 6.99998C4.64813 8.28151 5.69083 9.32421 6.97235 9.32421C8.25399 9.32421 9.29658 8.28151 9.29658 6.99998C9.29658 5.71845 8.25399 4.67576 6.97235 4.67576ZM10.7731 2.48825C10.3202 2.48825 9.95283 2.85547 9.95283 3.30856C9.95283 3.76166 10.3202 4.12888 10.7731 4.12888C11.2262 4.12888 11.5935 3.76166 11.5935 3.30856C11.5935 2.85547 11.2262 2.48825 10.7731 2.48825Z" fill="#828181"/>
</svg>
