<svg width="12" height="14" viewBox="0 0 12 14" fill="none" xmlns="http://www.w3.org/2000/svg">
<path d="M5.87764 0C2.04059 0 0 2.45886 0 5.13998C0 6.38341 0.694781 7.93398 1.80696 8.42576C1.97584 8.50188 2.06772 8.46951 2.10535 8.31288C2.1386 8.19387 2.28473 7.62072 2.35561 7.35033C2.37748 7.2637 2.36611 7.18845 2.2961 7.10707C1.92684 6.68005 1.6337 5.90214 1.6337 5.17236C1.6337 3.3024 3.12039 1.48669 5.65013 1.48669C7.83773 1.48669 9.36817 2.90776 9.36817 4.94047C9.36817 7.23745 8.15274 8.82652 6.5733 8.82652C5.69913 8.82652 5.0481 8.14049 5.25461 7.29171C5.504 6.28103 5.99315 5.19424 5.99315 4.46533C5.99315 3.81167 5.62388 3.2709 4.8696 3.2709C3.97968 3.2709 3.25777 4.15206 3.25777 5.33512C3.25777 6.08678 3.52378 6.5943 3.52378 6.5943C3.52378 6.5943 2.64349 10.1505 2.47986 10.8146C2.20335 11.939 2.51749 13.76 2.54462 13.9166C2.56124 14.0033 2.65837 14.0304 2.71262 13.9595C2.79925 13.8458 3.8633 12.3276 4.16169 11.2303C4.27019 10.8304 4.71559 9.20892 4.71559 9.20892C5.00873 9.73832 5.85489 10.182 6.75618 10.182C9.4373 10.182 11.3746 7.82548 11.3746 4.9011C11.365 2.09747 8.96566 0 5.87764 0Z" fill="#828181"/>
</svg>
