<svg width="21" height="14" viewBox="0 0 21 14" fill="none" xmlns="http://www.w3.org/2000/svg">
<path d="M19.4982 1.34909C18.9458 0.366545 18.3464 0.185818 17.1258 0.117091C15.9065 0.0343636 12.8405 0 10.1844 0C7.52309 0 4.45582 0.0343637 3.23782 0.115818C2.01982 0.185818 1.41909 0.365273 0.861636 1.34909C0.292727 2.33036 0 4.02055 0 6.99618C0 6.99873 0 7 0 7C0 7.00255 0 7.00382 0 7.00382V7.00636C0 9.96927 0.292727 11.6722 0.861636 12.6433C1.41909 13.6258 2.01855 13.804 3.23655 13.8867C4.45582 13.958 7.52309 14 10.1844 14C12.8405 14 15.9065 13.958 17.1271 13.888C18.3476 13.8053 18.9471 13.6271 19.4995 12.6445C20.0735 11.6735 20.3636 9.97054 20.3636 7.00764C20.3636 7.00764 20.3636 7.00382 20.3636 7.00127C20.3636 7.00127 20.3636 6.99873 20.3636 6.99745C20.3636 4.02055 20.0735 2.33036 19.4982 1.34909ZM7.63636 10.8182V3.18182L14 7L7.63636 10.8182Z" fill="#828181"/>
</svg>
