<svg width="52" height="52" viewBox="0 0 52 52" fill="none" xmlns="http://www.w3.org/2000/svg">
<g opacity="0.24">
<path d="M31.1096 39.8213C29.8091 40.3666 29.2638 41.9187 29.8511 43.1772L31.9066 47.4979C32.4939 48.714 33.9201 49.2598 35.1786 48.714C38.7442 47.2039 41.8065 45.2323 44.2395 42.8412C47.2179 40.0311 49.2314 36.801 50.3221 33.2354C51.4127 29.6274 52 24.7198 52 18.4694V5.59119C52 4.20689 50.8674 3.07427 49.4831 3.07427H32.9972C31.6129 3.07427 30.4803 4.20689 30.4803 5.59119V22.077C30.4803 23.4618 31.6129 24.5939 32.9972 24.5939H40.8836C40.7997 28.8312 39.7929 32.2286 37.9472 34.7879C36.437 36.8425 34.1718 38.5205 31.1096 39.8213Z" fill="#F6623E"/>
<path d="M1.4938 39.8215C0.193387 40.3668 -0.351526 41.9189 0.235336 43.1774L2.29082 47.4557C2.8781 48.6722 4.30436 49.2175 5.56282 48.6722C9.08651 47.1621 12.1072 45.1905 14.5818 42.8413C17.5606 39.9888 19.6156 36.7588 20.7067 33.1931C21.7974 29.6699 22.3423 24.7615 22.3423 18.4692V5.59092C22.3423 4.20661 21.2097 3.074 19.8254 3.074H3.33954C1.95523 3.074 0.822618 4.20661 0.822618 5.59092V22.0768C0.822618 23.4615 1.95523 24.5937 3.33954 24.5937H11.2678C11.1839 28.8309 10.1768 32.2283 8.33143 34.7876C6.82128 36.8427 4.55605 38.5206 1.4938 39.8215Z" fill="#F6623E"/>
</g>
</svg>
