<svg width="62" height="62" viewBox="0 0 62 62" fill="none" xmlns="http://www.w3.org/2000/svg">
<g clip-path="url(#clip0_157_2355)">
<path d="M26.8419 51.6667C26.5772 46.4996 23.7264 41.814 19.2593 39.2037L12.121 31.2728C11.1609 30.185 9.67187 29.7275 8.26667 30.0886V16.5334C8.26667 14.2506 6.4161 12.4 4.13333 12.4C1.85057 12.4 0 14.2506 0 16.5334V36.0913C0.00103333 37.6724 0.403904 39.2273 1.17077 40.61L10.3333 57.101V60.9667C10.3333 61.5373 10.796 62 11.3667 62H25.8333C26.404 62 26.8667 61.5373 26.8667 60.9667V51.6667H26.8419ZM24.8 59.9334H12.4V56.8334C12.4 56.6576 12.3552 56.4847 12.2698 56.3312L2.97703 39.6046C2.38106 38.5294 2.06783 37.3205 2.06667 36.0913V16.5334C2.06667 15.3919 2.99189 14.4667 4.13333 14.4667C5.27478 14.4667 6.2 15.3919 6.2 16.5334V31.3648C4.90704 32.8674 4.93675 35.098 6.26923 36.5656L14.7353 45.88L16.2647 44.4892L7.79857 35.1757C7.1238 34.4335 7.15105 33.2921 7.86057 32.5831C8.59346 31.8496 9.78231 31.849 10.5158 32.5821C10.5397 32.606 10.5629 32.6304 10.5855 32.6554L17.8322 40.7072C17.9245 40.7999 18.0287 40.8799 18.1422 40.9448C22.2548 43.3012 24.7939 47.6761 24.8 52.4159V59.9334Z" fill="white"/>
<path d="M57.8666 12.4C55.5839 12.4 53.7333 14.2506 53.7333 16.5334V30.0886C53.3984 30.0039 53.0538 29.9629 52.7082 29.9667C51.625 29.9908 50.6005 30.4635 49.879 31.2718L42.7428 39.2006C38.2696 41.8065 35.4163 46.4963 35.1581 51.6667H35.1333V60.9667C35.1333 61.5373 35.596 62 36.1666 62H50.6333C51.204 62 51.6666 61.5373 51.6666 60.9667V57.0989L60.7155 40.6979C61.556 39.2686 61.9995 37.6409 62 35.9828V16.5334C62 14.2506 60.1494 12.4 57.8666 12.4ZM59.9333 35.9828C59.9318 37.2818 59.5821 38.5568 58.9206 39.6749L49.724 56.3343C49.6412 56.4876 49.5985 56.6592 49.6 56.8334V59.9334H37.2V52.4159C37.2126 47.6576 39.7734 43.2707 43.9104 40.92C44.0067 40.8654 44.0936 40.7956 44.1677 40.7134L51.4145 32.6534C52.1105 31.8829 53.2992 31.8226 54.0697 32.5185C54.8401 33.2145 54.9005 34.4032 54.2045 35.1737L45.7353 44.4871L47.2646 45.88L55.7307 36.5676C57.0645 35.0996 57.0941 32.8676 55.8 31.3648V16.5334C55.8 15.3919 56.7252 14.4667 57.8666 14.4667C59.0081 14.4667 59.9333 15.3919 59.9333 16.5334V35.9828Z" fill="white"/>
<path d="M43.4002 25.8333H41.3336C37.6267 25.8373 34.1551 27.6503 32.0336 30.69V23.7667H33.0669C39.3414 23.7593 44.4262 18.6745 44.4336 12.4C44.4336 11.8293 43.9709 11.3667 43.4002 11.3667H41.3336C37.6267 11.3707 34.1551 13.1837 32.0336 16.2233V9.3H33.0669C37.6304 9.29483 41.3284 5.59679 41.3336 1.03333C41.3336 0.462675 40.8709 0 40.3002 0H38.2336C35.2242 0.00180833 32.4537 1.63887 31.0002 4.27387C29.5467 1.63887 26.7762 0.00180833 23.7669 0H21.7002C21.1296 0 20.6669 0.462675 20.6669 1.03333C20.6721 5.59679 24.3701 9.29483 28.9336 9.3H29.9669V16.2233C27.8453 13.1837 24.3737 11.3707 20.6669 11.3667H18.6002C18.0296 11.3667 17.5669 11.8293 17.5669 12.4C17.5743 18.6745 22.659 23.7593 28.9336 23.7667H29.9669V30.69C27.8453 27.6503 24.3737 25.8373 20.6669 25.8333H18.6002C18.0296 25.8333 17.5669 26.296 17.5669 26.8667C17.5743 33.1412 22.659 38.226 28.9336 38.2333H29.9669V46.5H32.0336V38.2333H33.0669C39.3414 38.226 44.4262 33.1412 44.4336 26.8667C44.4336 26.296 43.9709 25.8333 43.4002 25.8333ZM41.3336 13.4333H42.3101C41.7779 18.1377 37.8012 21.6943 33.0669 21.7H32.0904C32.6226 16.9956 36.5992 13.439 41.3336 13.4333ZM38.2336 2.06667H39.1811C38.6729 5.04783 36.0911 7.22959 33.0669 7.23333H32.1193C32.6276 4.25217 35.2094 2.07041 38.2336 2.06667ZM28.9336 7.23333C25.9094 7.22959 23.3276 5.04783 22.8193 2.06667H23.7669C26.7911 2.07041 29.3729 4.25217 29.8811 7.23333H28.9336ZM28.9336 21.7C24.1992 21.6943 20.2226 18.1377 19.6904 13.4333H20.6669C25.4012 13.439 29.3779 16.9956 29.9101 21.7H28.9336ZM28.9336 36.1667C24.1992 36.161 20.2226 32.6044 19.6904 27.9H20.6669C25.4012 27.9057 29.3779 31.4623 29.9101 36.1667H28.9336ZM33.0669 36.1667H32.0904C32.6226 31.4623 36.5992 27.9057 41.3336 27.9H42.3101C41.7779 32.6044 37.8012 36.161 33.0669 36.1667Z" fill="white"/>
</g>
<defs>
<clipPath id="clip0_157_2355">
<rect width="62" height="62" fill="white"/>
</clipPath>
</defs>
</svg>
