<svg width="62" height="62" viewBox="0 0 62 62" fill="none" xmlns="http://www.w3.org/2000/svg">
<g clip-path="url(#clip0_157_2384)">
<path d="M34.4206 30.2092L32.0089 26.3502C31.6341 25.7508 30.6437 25.7508 30.2688 26.3502L27.8572 30.2092C27.0995 31.4201 27.0614 32.8885 27.7529 34.1373C28.4454 35.3862 29.7105 36.132 31.1388 36.132C32.5672 36.132 33.8321 35.3862 34.5248 34.1373C35.2164 32.8885 35.1784 31.4201 34.4206 30.2092ZM32.7297 33.1421C32.404 33.7295 31.8096 34.0793 31.1391 34.0793C30.4686 34.0793 29.8742 33.7295 29.5484 33.1421C29.2237 32.5558 29.2417 31.8662 29.5976 31.2978L31.1392 28.831L32.6808 31.2978C33.0364 31.866 33.0545 32.5556 32.7297 33.1421Z" fill="#454545"/>
<path d="M47.597 4.86321C47.597 3.62025 47.113 2.45055 46.2339 1.57157C44.4187 -0.241682 41.4668 -0.242708 39.6535 1.56862L36.2739 4.91863L34.9435 3.5883L33.4922 5.03962L35.545 7.09241L35.8457 7.39314L30.413 12.8257C30.2206 13.0182 30.1123 13.2787 30.1123 13.5514V16.6305C30.1123 17.1979 30.5714 17.6569 31.1387 17.6569H34.2179C34.4905 17.6569 34.7511 17.5487 34.9435 17.3562L40.3762 11.9235L40.677 12.2242L42.7297 14.277L44.1812 12.8256L42.8573 11.5017L46.234 8.15472C47.113 7.27677 47.597 6.10707 47.597 4.86321ZM33.793 15.6041H32.1651V13.9763L37.2971 8.84433L38.9249 10.4722L33.793 15.6041ZM44.7855 6.70045L41.4057 10.0502L41.102 9.74653L38.0228 6.66735L37.7252 6.3697L41.102 3.02289C42.1164 2.00856 43.7682 2.00856 44.7827 3.02289C45.2738 3.51504 45.5445 4.1686 45.5445 4.86321C45.5442 5.55872 45.2737 6.21227 44.7855 6.70045Z" fill="#454545"/>
<path d="M61.9246 30.9228C61.8805 30.5249 61.6089 30.1891 61.229 30.0629C60.8301 29.9296 51.375 26.8654 44.8508 32.3001C42.0271 34.6537 40.9945 37.412 40.7346 39.8208L39.35 36.926V25.6927C40.5449 25.2687 41.4028 24.1271 41.4028 22.7889C41.4028 21.091 40.0215 19.7098 38.3236 19.7098H23.9541C22.2562 19.7098 20.8749 21.091 20.8749 22.7889C20.8749 24.1271 21.733 25.2687 22.9277 25.6927V36.926L22.4274 37.9722C22.4993 34.96 21.9039 31.4962 19.6571 28.351C14.3137 20.8695 2.97325 19.7579 2.49315 19.7139C1.98996 19.6658 1.54092 19.9865 1.40967 20.4666C1.28034 20.9417 -1.7266 32.187 1.45675 39.6152C4.76443 47.3332 15.296 47.4225 15.7431 47.4225C16.113 47.4225 16.4538 47.224 16.6362 46.9022C16.8186 46.5794 16.8136 46.1845 16.6231 45.8678L13.5439 40.7358C13.4246 40.5373 13.2413 40.384 13.0247 40.3028L8.39786 38.5678L10.7795 38.1708C11.0932 38.1188 11.3649 37.9243 11.5151 37.6446C11.6654 37.3649 11.6776 37.0322 11.5493 36.7415L9.15469 31.355L10.996 32.8283C11.404 33.1531 11.9933 33.123 12.3632 32.7521L13.6903 31.425V37.1584C13.6903 37.3509 13.7445 37.5394 13.8467 37.7027L18.7806 45.5969L14.5484 54.4457C13.7836 56.0455 13.8919 57.8958 14.8371 59.3963C15.7822 60.8958 17.4051 61.7919 19.1782 61.7919H43.0999C44.873 61.7919 46.4959 60.8958 47.4411 59.3963C48.3862 57.8958 48.4945 56.0455 47.7297 54.4457L43.5491 45.7048L47.2577 42.0288C47.372 41.9155 47.4582 41.7772 47.5083 41.6249L48.5878 38.3874L48.6409 38.5457C48.7311 38.8173 48.9316 39.0399 49.1943 39.1572C49.4559 39.2745 49.7566 39.2776 50.0182 39.1643L52.8639 37.9454L45.7753 45.7416C45.5689 45.9691 45.4756 46.2769 45.5198 46.5806C45.5639 46.8843 45.7413 47.1519 46.0038 47.3104C46.922 47.8656 48.5247 48.4411 50.4112 48.4411C52.2695 48.4411 54.4045 47.8818 56.4302 46.1948C62.937 40.7708 61.9687 31.3228 61.9246 30.9228ZM15.743 36.8636V28.9472C15.743 28.5323 15.4934 28.1574 15.1094 27.9989C14.7256 27.8385 14.2845 27.9277 13.9908 28.2214L11.5611 30.6511L7.14681 27.1189C6.77693 26.8242 6.25372 26.8192 5.87781 27.1079C5.50395 27.3976 5.37462 27.9047 5.56707 28.3377L9.13442 36.3635L4.28408 37.1724C3.82605 37.2486 3.47618 37.6235 3.43115 38.0855C3.38611 38.5475 3.65772 38.9826 4.09163 39.146L11.968 42.099L13.8394 45.2183C10.8915 44.8364 5.35358 43.4994 3.34288 38.8073C0.920205 33.1541 2.55704 24.5992 3.17955 21.8729C5.85382 22.2799 13.9877 23.9457 17.9871 29.5438C21.3509 34.2537 20.4087 40.0322 19.5758 42.9962L15.743 36.8636ZM45.7048 58.3016C45.1374 59.2018 44.1631 59.7389 43.0997 59.7389H19.1781C18.1146 59.7389 17.1403 59.2016 16.5729 58.3016C16.256 57.7989 16.1135 57.2308 16.114 56.6598H28.4185C28.7443 56.6598 29.0511 56.5044 29.2445 56.2428C29.438 55.9802 29.4951 55.6413 29.3989 55.3297C29.2475 54.8405 29.3187 54.3254 29.5973 53.8782L31.139 51.4114L32.6765 53.8722C32.8619 54.1719 32.9552 54.4956 32.9552 54.8324C32.9552 55.0068 32.9311 55.1662 32.8821 55.3206C32.7819 55.6323 32.8369 55.9731 33.0304 56.2387C33.2239 56.5034 33.5315 56.6596 33.8593 56.6596H46.1638C46.1642 57.2308 46.0217 57.7989 45.7048 58.3016ZM45.5306 54.607H35.0008C34.9627 53.9715 34.7652 53.349 34.4205 52.7898L32.1653 49.181V48.4486H33.1917C36.0213 48.4486 38.3236 46.1463 38.3236 43.3167C38.3236 42.7493 37.8646 42.2903 37.2972 42.2903H35.2444C34.0846 42.2903 33.0256 42.6916 32.1653 43.343V43.3167H31.7302C30.936 41.5074 29.1323 40.2375 27.0333 40.2375H24.9805C24.4132 40.2375 23.9541 40.6965 23.9541 41.2639C23.9541 44.0935 26.2564 46.3958 29.0861 46.3958H30.1125V49.181L27.8572 52.7898C27.5094 53.3471 27.313 53.9725 27.2769 54.607H16.7472L24.8803 37.6013C24.9465 37.463 24.9805 37.3116 24.9805 37.1583V25.868H28.0597V23.8152H23.9541C23.3878 23.8152 22.9277 23.3551 22.9277 22.7888C22.9277 22.2225 23.3878 21.7624 23.9541 21.7624H38.3236C38.8899 21.7624 39.35 22.2225 39.35 22.7888C39.35 23.3551 38.8899 23.8152 38.3236 23.8152H34.218V25.868H37.2972V37.1583C37.2972 37.3116 37.3313 37.463 37.3974 37.6013L45.5306 54.607ZM32.3406 46.3958C32.7647 45.201 33.9063 44.3431 35.2444 44.3431H36.0954C35.6714 45.5379 34.5298 46.3958 33.1917 46.3958H32.3406ZM29.9371 44.3431H29.0861C27.7479 44.3431 26.6063 43.485 26.1823 42.2903H27.0333C28.3715 42.2903 29.5131 43.1483 29.9371 44.3431ZM55.1158 44.6167C52.4265 46.858 49.7522 46.5302 48.2608 46.0591L57.5585 35.8322C57.8832 35.4744 57.9153 34.9391 57.6347 34.5463C57.354 34.1514 56.8349 34.0081 56.3948 34.1985L50.2354 36.8376L49.5608 34.8168C49.4215 34.3978 49.0295 34.1152 48.5875 34.1152C48.1455 34.1152 47.7536 34.3978 47.6143 34.8168L45.6387 40.7436L42.9274 43.4309C42.4713 41.2337 42.2979 37.1001 46.1659 33.8776C50.8999 29.9303 57.793 31.2766 59.927 31.8258C60.0092 33.9639 59.8568 40.6665 55.1158 44.6167Z" fill="#454545"/>
<path d="M23.0341 44.9106L20.9814 49.0159L22.8175 49.9339L24.8701 45.8286L23.0341 44.9106Z" fill="#454545"/>
<path d="M19.955 51.0709L18.9287 53.1235L20.7647 54.0415L21.7911 51.9889L19.955 51.0709Z" fill="#454545"/>
<path d="M20.8751 0.208191C17.4792 0.208191 14.7168 2.9706 14.7168 6.36654C14.7168 9.76249 17.4792 12.5249 20.8751 12.5249C24.2711 12.5249 27.0335 9.76249 27.0335 6.36654C27.0335 2.9706 24.2711 0.208191 20.8751 0.208191ZM20.8751 10.4721C18.6109 10.4721 16.7696 8.63077 16.7696 6.36654C16.7696 4.10232 18.6109 2.26098 20.8751 2.26098C23.1394 2.26098 24.9807 4.10232 24.9807 6.36654C24.9807 8.63077 23.1395 10.4721 20.8751 10.4721Z" fill="#454545"/>
<path d="M50.6402 16.6305C48.376 16.6305 46.5347 18.4718 46.5347 20.7361C46.5347 23.0003 48.376 24.8416 50.6402 24.8416C52.9045 24.8416 54.7458 23.0003 54.7458 20.7361C54.7458 18.4718 52.9046 16.6305 50.6402 16.6305ZM50.6402 22.7888C49.5086 22.7888 48.5875 21.8677 48.5875 20.7361C48.5875 19.6045 49.5086 18.6833 50.6402 18.6833C51.7718 18.6833 52.693 19.6045 52.693 20.7361C52.693 21.8677 51.7718 22.7888 50.6402 22.7888Z" fill="#454545"/>
<path d="M59.878 2.26098V0.208191H57.8252V2.26098H55.7725V4.31376H57.8252V6.36654H59.878V4.31376H61.9308V2.26098H59.878Z" fill="#454545"/>
<path d="M19.8487 5.34015H17.7959V7.39293H19.8487V5.34015Z" fill="#454545"/>
<path d="M7.53184 8.4193V6.36652H5.47905V8.4193H3.42627V10.4721H5.47905V12.5249H7.53184V10.4721H9.58462V8.4193H7.53184Z" fill="#454545"/>
</g>
<defs>
<clipPath id="clip0_157_2384">
<rect width="62" height="62" fill="white"/>
</clipPath>
</defs>
</svg>
