<svg width="62" height="62" viewBox="0 0 62 62" fill="none" xmlns="http://www.w3.org/2000/svg">
<g clip-path="url(#clip0_157_2371)">
<path d="M29.9535 23.6402C30.3575 24.0238 31.0291 23.9463 31.3361 23.4832L37.3809 14.3605C37.6581 13.9423 37.5436 13.3785 37.1255 13.1013C36.7078 12.8246 36.1439 12.939 35.8667 13.3567L30.4194 21.5778L27.3926 18.7038C27.0288 18.3584 26.4541 18.3736 26.1083 18.7373C25.763 19.1011 25.7781 19.6758 26.1419 20.0211C26.1414 20.0211 29.9502 23.6374 29.9535 23.6402Z" fill="#454545"/>
<path d="M30.5733 37.4927C30.7469 37.5721 30.939 37.6142 31.1301 37.6142H31.1376C31.332 37.6133 31.5269 37.5688 31.701 37.4856C45.5114 30.9176 47.8519 16.7468 48.2397 12.5601C48.3287 11.6041 47.7904 10.7139 46.9006 10.3449C44.1514 9.20354 42.2825 6.65111 42.0233 3.68384C41.9433 2.77043 41.1629 2.05853 40.2433 2.05853H40.2324L21.6266 2.1678C20.6886 2.173 19.9265 2.88585 19.8546 3.82574C19.6257 6.79396 17.7842 9.36484 15.0487 10.5351C14.1679 10.9116 13.6429 11.8066 13.7432 12.7621C14.1802 16.9441 16.6868 31.087 30.5733 37.4927ZM15.763 12.2049C19.1172 10.7707 21.3768 7.62175 21.6639 3.98373L40.2163 3.87494C40.546 7.50491 42.8378 10.625 46.2043 12.0223C46.3548 12.0852 46.446 12.2337 46.4314 12.3927C46.0672 16.3164 43.8879 29.5463 31.1267 35.7463C18.2922 29.6972 15.9597 16.4928 15.5492 12.5734C15.5326 12.4149 15.6187 12.2668 15.763 12.2049Z" fill="#454545"/>
<path d="M18.0309 17.2398C18.1406 17.6437 18.6529 18.0137 19.1458 17.8779C19.6292 17.7445 19.9154 17.2474 19.7839 16.7635C19.5526 15.9111 19.3582 15.0469 19.2054 14.1907C21.6727 12.5829 23.5037 10.1832 24.402 7.38057L37.518 7.30347C38.4489 10.0948 40.3079 12.4736 42.7941 14.0521C42.6517 14.9106 42.4672 15.7777 42.2454 16.6334C42.1195 17.1192 42.4114 17.6149 42.8967 17.7407C43.383 17.8665 43.8782 17.5747 44.0041 17.0889C44.2642 16.0842 44.4761 15.0644 44.6332 14.0578C44.7212 13.4953 44.4638 12.9424 43.9785 12.6491C41.6626 11.2504 39.9507 9.05602 39.1584 6.47047C38.9801 5.88913 38.4319 5.48517 37.8236 5.48517H37.815L24.0832 5.56558C23.4711 5.56937 22.9233 5.98137 22.7516 6.56697C21.9901 9.1615 20.3037 11.3757 18.0044 12.8019C17.5224 13.1004 17.2721 13.6562 17.3663 14.2181C17.5356 15.2223 17.7589 16.2389 18.0309 17.2398Z" fill="#454545"/>
<path d="M42.1683 19.9327C41.7047 19.7406 41.174 19.962 40.9824 20.4256C38.8836 25.5125 35.5611 29.3799 31.1043 31.9252C26.6129 29.4291 23.2422 25.5943 21.0842 20.5235C20.8875 20.0623 20.3539 19.8475 19.8927 20.0439C19.431 20.2402 19.2163 20.7737 19.4126 21.2349C21.7677 26.7683 25.4781 30.9399 30.4406 33.6328C30.6497 33.7468 30.8786 33.8031 31.1071 33.8031C31.3412 33.8031 31.5749 33.744 31.7878 33.6253C36.7129 30.8775 40.3712 26.6695 42.6616 21.1181C42.8532 20.6545 42.6323 20.1238 42.1683 19.9327Z" fill="#454545"/>
<path d="M5.82701 48.5311C4.05554 48.5311 2.61377 49.9724 2.61377 51.7444C2.61377 53.5163 4.05554 54.9576 5.82701 54.9576C7.59895 54.9576 9.04073 53.5163 9.04073 51.7444C9.04073 49.9724 7.59943 48.5311 5.82701 48.5311ZM5.82701 53.1412C5.05693 53.1412 4.43018 52.5149 4.43018 51.7444C4.43018 50.9743 5.05693 50.3475 5.82701 50.3475C6.59757 50.3475 7.22432 50.9743 7.22432 51.7444C7.22432 52.5149 6.59757 53.1412 5.82701 53.1412Z" fill="#454545"/>
<path d="M61.3486 39.6398C60.1845 37.9293 57.8407 37.4762 56.1241 38.6294L44.2512 46.5757L41.7168 46.4333L41.652 45.7843C41.3994 43.2428 39.4567 41.2178 36.9279 40.8602C36.9118 40.8578 36.8962 40.8559 36.8801 40.8545L24.0868 39.7334C23.654 39.6658 22.2685 39.268 18.4616 37.0845C16.4829 35.9497 14.2536 35.3092 11.9888 35.2222V32.8462C11.9888 31.6537 11.0191 30.684 9.82657 30.684H2.16219C0.970169 30.684 0 31.6542 0 32.8462V56.2471C0 57.4391 0.970169 58.4093 2.16219 58.4093H9.82657C11.0186 58.4093 11.9888 57.4391 11.9888 56.2471V55.6024L23.1719 59.8373C23.1965 59.8468 24.1047 60.1864 25.7745 60.0289C25.7792 60.0284 44.3563 57.3502 44.3563 57.3502C44.361 57.3497 44.3652 57.3488 44.37 57.3478C45.9574 57.0948 47.4545 56.4235 48.7 55.408C48.7114 55.3985 48.7222 55.389 48.7331 55.3796L60.7342 44.5857C62.1485 43.3298 62.4129 41.2036 61.3486 39.6398ZM59.5237 43.2314L47.5354 54.014C46.543 54.8186 45.352 55.3507 44.0899 55.5532L25.5219 58.23C25.5177 58.2305 25.5115 58.2314 25.5058 58.2324C25.503 58.2329 25.4997 58.2333 25.4969 58.2338C24.9415 58.3213 24.363 58.2844 23.7769 58.1241L11.9888 53.6601V43.2882C11.9888 42.7863 11.582 42.38 11.0805 42.38C10.5787 42.38 10.1723 42.7863 10.1723 43.2882V56.2471C10.1723 56.4377 10.0172 56.5929 9.82657 56.5929H2.16219C1.97156 56.5929 1.81641 56.4377 1.81641 56.2471V32.8462C1.81641 32.6556 1.97156 32.5004 2.16219 32.5004H9.82657C10.0172 32.5004 10.1723 32.6556 10.1723 32.8462V39.1857C10.1723 39.6875 10.5791 40.0939 11.0805 40.0939C11.5824 40.0939 11.9888 39.6871 11.9888 39.1857V37.0405C13.9371 37.1266 15.8538 37.6829 17.5576 38.6606C22.1493 41.2939 23.4316 41.4756 23.8531 41.5352C23.8692 41.5375 23.8848 41.5389 23.9009 41.5408L36.6957 42.6619C38.3825 42.9112 39.6757 44.2659 39.8446 45.9641L39.8928 46.448L22.7633 47.5056C22.7514 47.5047 22.7396 47.5038 22.7292 47.5028C22.1739 47.4527 21.6725 47.1901 21.3163 46.7635C20.9951 46.378 20.4223 46.3259 20.0372 46.6476C19.6517 46.9688 19.5997 47.5416 19.9213 47.9266C20.5878 48.726 21.5282 49.2043 22.5674 49.3121C23.1284 49.3708 40.8918 48.2062 40.8918 48.2062L44.4527 48.4063C44.6495 48.4176 44.8449 48.3637 45.0085 48.254L57.1359 40.1378C58.0266 39.5395 59.2427 39.7741 59.8468 40.6615C60.3988 41.4732 60.2616 42.5763 59.5237 43.2314Z" fill="#454545"/>
</g>
<defs>
<clipPath id="clip0_157_2371">
<rect width="62" height="62" fill="white"/>
</clipPath>
</defs>
</svg>
