<svg width="267" height="460" viewBox="0 0 267 460" fill="none" xmlns="http://www.w3.org/2000/svg">
<path d="M191.878 198.899C191.694 197.425 191.878 195.951 192.246 194.476C192.615 193.002 193.351 191.528 193.167 190.054C193.167 188.58 193.903 187.659 194.824 186.553C198.875 183.052 200.164 178.446 198.691 173.286C198.138 171.075 198.138 169.048 198.875 166.837C199.611 165.179 199.243 163.52 198.138 162.046C197.218 160.756 195.929 159.651 195.008 158.361C192.983 155.413 190.589 153.754 186.907 153.754C185.618 153.754 185.25 152.833 186.17 151.912C187.827 150.253 187.459 148.595 187.091 146.752C186.539 144.173 185.434 141.961 183.04 140.672C181.751 139.935 181.015 138.829 180.463 137.539C179.542 134.959 178.069 132.933 174.939 132.748C173.834 132.748 172.729 132.011 172.177 130.721C171.256 128.879 169.599 128.142 167.574 128.142C166.469 128.142 165.18 128.142 164.076 128.142C158 128.694 157.815 128.879 157.631 134.407C157.447 137.539 156.342 139.382 153.581 140.672C148.609 143.067 144.19 146.384 139.771 149.7C139.035 150.253 138.298 151.175 137.194 151.175C136.641 150.069 136.457 148.595 136.273 147.305C135.905 144.725 135.537 142.146 133.511 140.119C132.959 139.566 132.222 138.46 131.486 139.197C130.565 139.935 131.67 140.672 132.222 141.224C132.591 141.593 133.143 141.777 132.591 142.33C132.407 142.514 131.854 142.146 131.302 142.146C132.959 145.278 132.959 145.278 131.302 148.411C130.565 149.885 129.829 151.359 128.908 152.464C126.883 155.228 125.042 157.992 121.727 159.282C120.07 159.835 118.966 160.941 118.413 162.415C117.677 164.257 116.756 166.1 115.651 167.758C114.363 169.417 112.153 169.969 111.232 171.996C111.048 172.181 110.68 172.365 110.312 172.181C108.471 171.812 106.998 172.549 105.525 173.286C103.131 174.576 100.553 174.945 98.3439 176.234C97.9757 176.419 97.4233 176.419 96.8709 176.419C92.0838 175.497 87.1125 175.866 82.3253 175.866C76.6175 176.05 70.7256 176.787 65.0178 176.787C60.9671 176.603 56.7323 177.34 52.8657 178.261C49.9197 178.998 46.9738 179.367 44.0278 179.92C38.32 181.025 32.4281 181.762 26.9044 184.158C26.3521 184.342 25.6156 184.895 24.695 184.342C26.1679 181.947 28.3774 180.104 30.4027 178.63C35.9264 174.576 40.7136 169.601 46.2373 165.731C49.5515 163.336 52.3133 160.388 55.8116 158.361C61.1512 155.044 65.9384 151.175 71.0938 147.858C76.2492 144.541 81.4047 141.224 86.5601 137.908C87.4807 137.355 88.2172 136.802 89.1378 136.434C94.2932 134.222 99.0804 131.09 104.052 128.326C105.156 127.773 105.893 126.668 106.998 126.115C111.232 124.088 115.651 121.877 119.886 119.666C121.727 118.744 123.385 117.639 125.226 116.902C127.988 115.796 130.381 114.322 132.591 112.664C132.407 112.664 132.407 112.664 132.222 112.479C132.591 111.558 133.327 111.005 134.248 110.821C136.457 110.452 138.114 109.347 140.14 108.425C143.822 106.767 147.32 105.293 151.187 104.187C156.342 102.529 161.498 101.055 166.285 98.6595C169.231 97.1854 172.177 95.3428 175.675 95.5271C177.517 95.7113 179.542 95.8956 181.383 96.0798C182.304 96.0798 183.04 96.4484 183.777 96.8169C185.802 98.1067 188.012 99.2123 190.589 99.2123C192.983 99.2123 195.008 100.134 196.849 101.608C197.402 101.976 197.954 102.345 198.507 102.713C201.268 104.372 204.214 105.662 207.529 106.214C213.052 107.136 218.576 108.61 223.363 111.742C224.652 112.479 225.757 113.216 226.493 114.506C226.861 115.059 227.23 115.612 227.966 115.796C228.887 116.165 229.807 115.612 229.623 114.875C229.071 113.032 230.912 111.189 229.071 109.347C230.912 109.347 232.017 110.268 232.569 111.189C234.41 114.138 237.356 115.243 240.486 116.349C242.88 117.27 245.089 116.349 246.562 114.322C248.772 111.189 249.324 107.504 250.429 104.003C250.613 103.45 250.429 102.898 249.877 102.713C249.324 102.345 248.956 102.898 248.588 103.266C247.667 104.372 247.667 105.846 247.483 107.136C247.299 109.347 246.378 111.189 245.089 112.848C243.432 114.875 242.144 115.243 239.566 114.322C237.725 113.585 236.068 112.479 234.779 111.189C232.753 109.163 230.544 107.688 227.782 106.767C226.677 106.399 225.388 105.846 225.02 104.372C226.493 104.372 227.598 104.924 228.518 105.477C231.833 107.32 235.147 107.136 238.461 106.03C242.144 104.924 245.274 102.713 248.22 100.502C249.14 99.7651 250.061 99.3966 251.166 99.5808C253.375 99.9494 255.4 99.0281 257.242 98.4753C259.267 97.9225 260.372 96.6326 260.372 94.4215C260.372 93.5002 260.556 92.9474 261.476 92.7631C262.397 92.5788 262.949 91.6575 263.686 91.289C265.711 90.1834 266.632 88.7093 266.079 86.3139C265.895 85.7611 266.079 85.2083 266.079 84.4713C266.079 81.523 264.054 78.5748 261.108 77.6535C259.451 77.1007 259.451 76.9165 260.003 75.4424C260.188 74.8896 260.556 74.3368 260.74 73.784C261.845 71.02 262.029 68.0718 260.556 65.4921C259.635 63.8338 258.899 61.9911 258.53 60.1485C258.162 57.9373 257.057 56.4632 254.664 56.0947C253.927 55.9104 253.191 55.5419 252.454 55.3576C250.429 54.9891 249.693 53.515 249.693 51.8566C249.693 48.9084 248.035 47.0658 246.01 45.4074C244.537 44.3018 243.064 43.3805 243.248 41.1694C243.248 40.6166 242.88 39.8795 242.696 39.3267C241.775 37.8526 241.223 36.1943 240.855 34.3516C240.486 32.1405 237.725 29.745 234.779 31.2191C234.226 31.4034 233.674 31.5877 233.122 31.9562C232.017 32.6933 231.096 32.8775 230.176 31.5877C229.807 31.0349 229.071 30.6664 228.518 30.6664C227.045 30.6664 225.572 30.4821 224.284 30.8506C222.442 31.2192 220.601 31.0349 218.76 30.6664C217.471 30.2978 216.182 29.9293 214.709 30.2978C213.236 30.4821 212.5 31.0349 211.947 32.509C211.211 34.5359 211.211 36.5628 211.027 38.4054C210.659 41.3536 209.922 44.1176 208.449 46.513C207.529 47.8029 206.424 49.277 205.503 50.5668C203.662 53.1465 201.452 55.5419 199.059 57.7531C197.77 59.0429 197.034 58.6744 197.034 57.016C196.849 54.0678 195.376 51.6724 194.272 48.9084C193.351 46.6973 191.326 45.9602 189.669 44.8546C188.748 44.3018 188.012 44.8546 188.196 45.9602C188.196 46.6973 188.564 47.4343 188.932 48.1714C191.142 50.9353 191.51 54.0678 190.957 57.5688C190.957 58.1216 190.957 58.4901 190.957 59.0429C190.957 62.5439 190.589 65.8607 188.932 68.9931C188.012 70.6515 187.459 72.6784 187.827 74.521C187.827 75.0738 187.827 75.6266 187.275 76.1794C185.618 75.0738 185.618 75.0738 183.961 76.5479C183.408 77.1007 183.04 77.4692 182.672 78.022C180.278 80.786 177.885 83.7342 175.123 86.1296C173.834 87.2352 173.466 88.525 173.834 90.1834C174.018 92.0261 174.018 92.026 172.177 92.7631C170.336 93.5002 168.31 93.8687 166.469 94.4215C163.891 94.9743 161.498 95.7113 159.104 96.8169C154.133 99.2123 149.162 101.423 144.006 103.082C140.876 104.003 137.746 105.109 134.8 106.583C131.302 108.425 127.804 110.084 124.305 112.111C120.807 114.138 116.94 115.427 113.626 117.823C110.68 120.034 107.182 121.324 104.052 123.351C100.185 125.746 95.7662 126.668 91.8996 128.694C86.5601 131.458 81.0364 134.038 76.0651 137.539C73.3033 139.382 70.7256 141.409 67.9637 143.067C63.5448 145.831 59.1259 148.779 55.0751 152.28C49.5515 156.887 43.8437 161.309 38.5041 166.1C34.0852 170.154 29.6663 174.023 25.2473 178.077C22.3014 180.841 19.1713 183.421 16.0412 185.816C14.0159 187.474 11.8064 188.949 9.96516 190.607C4.99386 195.214 0.0225449 200.004 -4.94876 204.979C-9.3677 209.402 -13.7866 213.824 -17.8373 218.431C-20.415 221.379 -22.9928 224.327 -25.7546 227.275C-26.1228 227.828 -26.6752 228.197 -27.4117 228.381C-27.4117 227.091 -26.8593 226.354 -26.307 225.433C-22.9928 220.273 -19.6786 215.298 -16.9167 209.955C-15.2596 206.822 -13.7866 203.505 -10.8407 201.11C-10.4724 200.741 -10.2883 200.373 -9.92007 199.82C-8.99945 197.977 -7.89472 196.503 -6.60587 195.029C-4.76464 192.818 -2.55517 190.791 -0.713943 188.58C2.41614 184.526 6.28271 181.21 9.96516 177.524C15.673 171.628 21.5649 166.1 27.825 160.756C34.4534 155.044 40.3454 148.595 47.342 143.251C52.1292 139.566 55.8116 134.959 59.8623 130.537C62.6242 127.589 64.8336 124.272 67.2272 120.955C71.8303 114.506 76.9857 108.61 82.5094 102.713C85.8236 99.2123 89.8743 96.6326 94.8456 95.7113C96.6868 95.3428 98.3439 94.79 99.8169 93.3159C100.369 92.7631 100.922 92.3946 101.658 92.2103C104.052 91.4733 106.077 89.9992 107.55 88.1565C108.471 87.0509 109.207 85.9454 109.76 84.8398C111.969 79.6804 116.204 75.9951 120.07 72.3099C121.543 70.8358 123.569 69.5459 125.594 68.8089C128.908 67.519 132.407 66.782 135.905 68.4403C136.457 68.6246 136.826 68.8089 137.194 68.2561C137.562 67.7033 137.194 67.3348 136.825 66.9662C136.273 66.4134 135.721 66.0449 134.984 65.4921C133.88 64.5708 133.695 64.2023 134.984 63.4652C138.483 61.6226 141.981 59.5957 146.032 59.4114C148.057 59.2272 150.266 59.0429 152.292 58.8587C155.422 58.6744 157.447 55.9104 156.342 52.778C155.79 50.9353 155.606 48.9084 154.133 47.4343C153.949 47.2501 153.949 46.8815 154.133 46.513C155.238 43.1963 153.949 40.6166 152.292 38.0369C150.451 35.2729 148.609 33.0618 144.743 33.9831C143.27 34.3516 143.086 33.9831 143.454 32.3247C143.822 29.9293 144.006 27.3496 144.375 24.7699C144.743 23.1116 144.559 21.4532 143.086 20.3476C141.429 19.242 139.956 17.3994 137.562 18.6892C136.641 19.242 135.537 19.0578 134.984 17.5837C134.616 16.4781 133.327 16.2938 132.222 16.8466C131.118 17.3994 130.013 17.7679 128.908 18.3207C128.172 18.6892 127.251 18.8735 126.515 19.0578C124.121 19.6106 123.016 18.8735 122.648 16.4781C122.464 14.8197 121.727 13.5299 120.807 12.4243C119.886 11.1344 118.966 9.66034 118.413 8.18623C117.493 5.42228 115.467 3.57965 113.074 2.10554C112.153 1.55275 111.417 1.36849 110.496 1.73701C108.839 2.47407 107.182 2.10554 105.709 1.18422C104.972 0.815696 104.42 0.631432 103.499 0.815696C100.001 1.73701 96.8709 3.39538 95.5821 7.08065C95.398 7.63344 95.2138 8.37049 94.6615 8.92328C92.8203 10.5817 92.0838 12.7928 91.7155 15.1882C91.5314 16.6623 90.6108 17.7679 89.3219 18.505C88.0331 19.242 86.7442 20.3476 86.0077 21.6375C85.0871 23.4801 83.7982 24.4014 82.1411 25.3227C78.4587 27.1654 77.354 33.4303 80.1158 36.5628C82.5094 38.9582 83.2459 42.0907 83.6141 45.2232C83.7982 47.2501 83.2459 47.6186 81.2205 46.8815C80.6682 46.6973 79.9317 45.9602 79.3793 46.1445C77.5381 47.2501 75.3286 47.8029 73.6715 49.277C73.3033 49.6455 73.1192 50.1983 73.4874 50.5668C73.8556 50.9353 74.2239 51.3039 74.7762 51.3039C75.1445 51.3039 75.5128 51.1196 75.881 50.9353C76.9857 50.5668 78.2746 50.3825 79.3793 50.5668C81.5888 50.9353 82.6935 52.4094 82.1411 54.4363C81.957 55.5419 81.7729 56.6475 81.2205 57.5688C79.3793 61.0698 78.2746 64.7551 77.5381 68.4403C76.8016 72.1256 76.8016 75.8109 77.1698 79.4961C77.5381 82.6286 78.6428 85.2083 80.6682 87.4195C82.5094 89.4464 82.3253 91.289 81.5888 93.3159C80.8523 95.7113 79.5634 97.5539 78.0905 99.5808C75.6969 102.713 73.3033 106.03 70.7256 109.163C66.3066 113.953 62.2559 118.929 58.2052 124.088C56.364 126.299 54.891 128.694 53.0498 130.537C51.0245 132.38 49.3674 134.591 47.5261 136.802C45.6849 139.013 43.6596 141.224 41.6342 143.436C39.0565 146.015 36.1105 148.042 33.3487 150.438C31.8757 151.727 30.5869 153.017 29.298 154.123C25.6156 156.887 22.1172 159.835 18.803 163.152C17.6983 164.073 16.7777 165.179 15.673 165.916C11.4381 169.232 7.38745 173.102 4.07325 177.34C2.41615 179.551 0.574913 181.762 -1.26631 183.605C-3.47578 185.816 -5.68525 188.212 -7.71059 190.791C-10.8407 194.661 -13.9708 198.53 -16.9167 202.4C-19.8627 206.269 -22.8086 210.139 -25.0181 214.561C-26.1228 216.957 -27.2276 219.352 -28.8847 221.379C-31.6465 224.88 -33.4877 228.749 -35.5131 232.619C-38.0908 237.594 -39.932 242.938 -42.1415 248.097C-43.6145 251.414 -44.9033 254.731 -46.3763 258.047C-48.5858 262.838 -50.2429 267.813 -53.9253 271.683C-54.1095 271.867 -54.1095 272.051 -54.2936 272.42C-58.5284 279.238 -61.8426 286.424 -64.4203 294.163C-64.7885 295.453 -65.1568 296.927 -66.4456 297.848C-67.1821 296.743 -66.8139 295.821 -66.6298 294.9C-65.8933 292.505 -65.1568 290.109 -64.2362 287.714C-62.2108 283.107 -60.7379 278.316 -60.1855 273.525C-59.6331 269.287 -59.2649 265.234 -58.8966 260.996C-58.5284 258.416 -58.3443 256.02 -57.976 253.441C-56.1348 244.228 -55.0301 235.014 -56.1348 225.617C-56.8713 219.352 -58.7125 213.087 -58.5284 206.638C-58.5284 200.926 -58.3443 195.398 -55.7666 190.238C-55.5824 189.686 -55.3983 189.133 -55.3983 188.58C-55.9507 188.764 -56.1348 188.58 -56.1348 188.027C-56.1348 186.737 -55.7665 185.448 -55.5824 184.342C-54.8459 179.735 -53.5571 175.129 -52.4523 170.522C-51.1635 165.363 -50.0588 160.203 -47.8493 155.228C-46.7446 152.833 -45.8239 150.438 -44.7192 148.042C-44.5351 147.489 -44.351 146.937 -45.0874 146.752C-45.6398 146.568 -45.8239 146.937 -46.0081 147.305C-46.9287 148.963 -47.8493 150.806 -48.5858 152.464C-50.6111 157.992 -52.4523 163.704 -53.9253 169.601C-55.2142 174.76 -57.0554 179.92 -57.6078 185.263C-57.6078 185.632 -57.7919 186.185 -58.3443 186.185C-58.7125 185.816 -58.7125 185.263 -58.8966 184.711C-59.6331 181.025 -60.3696 177.34 -61.1061 173.655C-61.2902 175.129 -61.2902 176.603 -61.1061 178.077C-60.7379 181.578 -60.0014 185.079 -59.8172 188.58C-59.8172 189.133 -59.6331 189.686 -59.449 190.054C-58.8966 190.791 -59.0808 191.528 -59.0808 192.45C-60.0014 196.872 -60.922 201.294 -60.7379 205.901C-60.7379 206.269 -60.922 206.638 -61.4743 206.638C-62.395 205.717 -62.5791 204.611 -63.1314 203.321C-64.0521 200.741 -64.9727 198.162 -66.4456 195.766C-66.4456 197.977 -65.1568 199.82 -64.6044 202.031C-63.6838 205.532 -62.7632 208.849 -61.4743 212.166C-60.922 213.824 -60.0014 215.114 -59.6331 216.957C-58.8966 222.669 -58.1601 228.381 -57.7919 234.277C-57.6078 237.041 -57.976 239.621 -58.5284 242.201C-61.6585 240.358 -63.3156 237.594 -65.7092 235.383C-65.8933 235.199 -66.0774 234.646 -66.0774 234.277C-66.8139 231.145 -68.6551 228.749 -70.8646 226.354C-72.5217 224.511 -74.7312 223.406 -76.02 221.195C-76.9406 219.536 -78.0454 218.062 -79.5183 216.772C-82.8325 213.456 -85.4103 209.586 -86.1467 204.795C-86.515 203.137 -86.515 201.478 -86.3309 199.82C-86.1467 196.135 -85.7785 192.634 -83.7532 189.317C-82.6484 187.659 -81.3596 186 -79.8866 184.711C-77.3089 182.499 -76.2041 179.551 -76.2041 176.234C-76.2041 173.286 -75.4676 170.707 -73.6264 168.311C-72.1534 166.468 -70.3122 164.81 -68.6551 163.52C-66.2615 161.678 -64.9727 159.466 -64.0521 156.887C-63.3156 155.228 -63.4997 153.386 -62.7632 151.727C-60.922 148.226 -58.7125 144.91 -55.9507 141.593C-57.0554 146.752 -57.0554 147.121 -54.6618 147.489C-55.3983 143.804 -53.1888 140.119 -49.6905 139.013H-49.5064C-49.8746 136.986 -48.7699 136.065 -47.1128 135.512C-45.8239 135.144 -44.5351 134.591 -43.4303 133.67C-40.3003 131.458 -37.1702 129.063 -33.6719 127.22C-33.3036 127.036 -32.7512 126.668 -32.383 127.22C-32.5671 128.326 -33.1195 129.247 -33.6719 130.169C-34.9607 132.748 -36.2496 135.328 -37.1702 138.092C-38.0908 141.409 -39.1955 144.541 -37.7226 148.042C-36.8019 150.438 -36.2496 152.833 -35.6972 155.413C-35.329 156.887 -35.329 158.177 -35.8813 159.651C-36.4337 160.756 -36.4337 161.862 -35.8813 162.967C-35.1448 164.994 -34.4083 166.837 -33.6719 168.864C-32.9354 170.706 -32.5671 172.733 -32.1989 174.76C-31.8306 177.34 -33.1195 179.551 -34.9607 181.21C-36.6178 182.868 -37.3543 184.711 -37.7226 186.922C-38.0908 188.764 -37.5384 190.607 -37.3543 192.45C-36.8019 197.793 -36.9861 202.953 -39.932 207.743C-41.7732 210.876 -43.0621 214.193 -43.4303 217.878C-43.7986 221.747 -45.6398 225.248 -48.2175 228.197C-50.427 230.592 -51.7159 233.909 -53.9253 236.304C-54.1095 236.489 -54.2936 236.857 -53.5571 237.226C-51.5317 235.567 -49.6905 233.54 -47.8493 231.329C-47.6652 231.145 -47.481 230.961 -47.481 230.592C-47.2969 228.934 -46.0081 227.828 -45.2716 226.538C-43.4303 223.59 -41.5891 220.826 -41.0368 217.141C-40.4844 214.008 -39.5638 211.06 -37.7226 208.296C-35.6972 205.348 -34.9607 202.031 -34.9607 198.53C-34.9607 196.319 -35.1448 193.924 -35.5131 191.713C-36.0655 187.29 -35.329 183.421 -31.8306 180.288C-29.9894 178.63 -29.437 176.603 -29.9894 174.392C-30.5418 171.075 -31.4624 167.943 -32.9354 164.994C-33.856 162.967 -34.2242 160.756 -33.3036 158.729C-33.1195 158.177 -32.7512 157.44 -32.9354 156.702C-33.856 154.307 -33.856 151.543 -35.1448 149.148C-36.9861 145.647 -36.6178 141.777 -35.5131 138.276C-34.4083 133.854 -32.0148 129.8 -29.8053 125.931C-29.437 125.378 -28.7006 124.825 -28.7006 124.088C-28.7006 122.982 -29.9894 123.904 -30.3577 122.982C-30.91 121.692 -31.6465 122.061 -32.1989 122.982C-33.4877 124.825 -35.329 126.115 -36.8019 127.589C-39.5638 130.537 -43.2462 132.38 -46.7446 133.854C-49.1381 134.775 -50.9794 136.065 -52.6365 137.908C-53.7412 139.197 -54.8459 140.303 -56.3189 141.409C-59.449 143.62 -62.0267 146.384 -63.1314 150.253C-63.4997 151.727 -64.0521 153.201 -64.6044 154.491C-65.525 157.071 -66.6298 159.466 -68.6551 161.309C-70.1281 162.783 -71.417 164.257 -72.8899 165.547C-75.8359 168.495 -77.6771 171.812 -77.6771 176.05C-77.6771 179.92 -79.5183 182.684 -82.0961 185.263C-83.9373 186.922 -85.4103 188.764 -86.1467 191.344C-86.8832 193.924 -87.6197 196.688 -87.8038 199.452C-87.8038 204.242 -87.2515 208.665 -84.6738 212.719C-83.3849 214.745 -81.9119 216.588 -80.2548 218.246C-79.3342 218.984 -78.5977 219.905 -78.0454 221.01C-76.7565 223.037 -75.4676 225.064 -73.6264 226.354C-70.8646 228.381 -69.0234 230.961 -67.7345 234.093C-66.8139 236.489 -65.525 238.515 -63.4997 240.174C-59.8172 243.491 -59.0807 247.729 -60.7379 251.967C-61.8426 254.546 -62.5791 257.126 -63.4997 259.89C-65.8933 267.998 -67.7345 276.289 -68.1027 284.95C-68.2869 289.741 -68.2869 294.347 -69.0234 299.138C-69.3916 301.165 -69.2075 303.376 -70.1281 305.219C-71.0487 307.43 -72.1534 309.457 -73.6264 311.299C-74.7312 312.774 -75.4676 314.432 -76.02 316.275C-77.1247 319.776 -78.4136 323.277 -79.8866 326.593C-81.3596 330.094 -83.2008 333.411 -84.4896 336.912C-87.0674 344.467 -90.9339 351.469 -93.6958 359.024C-96.6417 367.316 -99.9559 375.423 -102.35 384.083C-102.718 385.558 -103.086 387.216 -103.638 388.69C-105.848 394.771 -108.241 401.036 -109.162 407.485C-110.083 415.593 -112.66 423.147 -114.317 431.071C-115.606 437.336 -117.263 443.785 -118.552 450.05C-119.289 453.551 -117.448 456.315 -116.527 459.447C-116.343 458.342 -116.711 457.42 -116.895 456.315C-117.263 454.841 -118.184 453.366 -117.632 451.892C-116.711 448.76 -116.711 445.627 -115.422 442.679C-114.686 441.021 -114.502 439.178 -114.317 437.336C-114.317 436.599 -114.317 435.861 -113.949 435.124C-111.74 429.965 -111.187 424.437 -109.162 419.278C-107.321 414.671 -107.873 409.696 -106.4 404.905C-105.295 401.404 -104.559 397.903 -103.27 394.586C-102.902 394.955 -102.902 395.508 -103.086 395.876C-103.638 398.456 -103.638 401.036 -104.007 403.615C-104.559 409.696 -105.48 415.592 -107.321 421.489C-107.689 422.779 -108.057 424.253 -108.241 425.727C-108.978 432.729 -111.187 439.547 -112.476 446.549C-113.029 449.313 -113.765 452.077 -113.949 455.393C-113.029 454.288 -112.844 453.182 -112.66 452.261C-112.292 450.05 -111.924 447.839 -111.187 445.627C-110.083 441.758 -109.714 437.704 -108.241 434.019C-107.137 431.623 -106.4 429.228 -106.032 426.833C-105.664 424.806 -105.48 422.779 -105.111 420.936C-104.007 416.145 -102.165 411.539 -101.061 406.564C-99.7718 400.851 -98.2988 395.324 -96.4576 389.796C-95.7211 387.4 -94.8005 384.821 -93.8799 382.425C-93.1434 380.582 -92.0387 378.924 -91.6704 376.897C-91.1181 374.686 -90.5657 372.291 -89.8292 370.079C-88.5403 366.21 -86.8832 362.525 -85.5944 358.839C-84.8579 356.628 -83.569 354.417 -83.569 351.837C-83.569 349.81 -82.8325 347.968 -81.9119 346.309C-80.9913 344.651 -80.2548 342.993 -79.8866 341.15C-79.5183 339.492 -78.5977 338.202 -77.1247 337.465C-74.7312 336.175 -72.8899 334.148 -70.6805 332.674C-69.2075 331.753 -67.5504 330.831 -66.2615 329.726C-63.1314 326.962 -60.1855 324.014 -56.8713 321.25C-54.2936 319.223 -51.5317 317.012 -48.954 314.985C-47.1128 313.511 -45.2716 312.221 -43.7986 310.562C-42.5097 309.088 -41.0368 307.614 -39.3797 306.509C-36.8019 304.85 -34.9607 302.455 -33.1195 300.059C-29.6212 295.453 -25.7546 291.399 -20.0468 289.372C-16.7326 288.267 -13.6025 287.161 -10.1042 288.451C-9.3677 288.635 -8.63121 288.819 -7.89472 289.004C-3.10754 289.741 1.49553 289.556 5.3621 285.871C7.75569 283.844 10.3334 282.37 13.2794 280.896C19.1713 277.948 23.4061 273.341 25.2473 266.708C26.5362 262.101 28.9298 258.047 31.5075 254.178C35.1899 248.834 38.6883 243.491 40.5295 237.041C41.0818 234.83 41.4501 232.619 42.1866 230.408C44.0278 224.327 47.5261 219.168 51.3927 214.377C52.6816 212.903 53.7863 211.429 55.4434 210.139C55.8116 209.77 55.9958 209.218 55.6275 208.849C55.2593 208.48 54.891 208.48 54.5228 208.665C53.7863 209.218 53.2339 209.033 52.4974 208.48C51.761 208.112 51.0245 208.112 50.288 208.296C49.1832 208.665 47.8944 209.033 46.6055 209.402C44.2119 210.139 42.3707 211.797 40.1612 212.719C35.0058 215.298 29.4821 216.772 24.1426 218.615C21.9331 219.352 20.0919 220.273 18.6189 221.932C18.0665 222.484 17.5142 223.037 16.9618 223.59C13.6476 226.354 9.59691 227.275 5.54622 228.197C0.943161 229.118 -3.47578 230.776 -7.15823 233.54C-10.2883 235.936 -13.2343 238.7 -15.9961 241.648C-16.3643 242.016 -16.7326 242.569 -16.9167 243.122C-17.8373 245.886 -19.6786 247.729 -21.7039 249.387C-25.0181 252.151 -27.4117 255.652 -27.5958 260.074C-27.7799 263.76 -28.7006 267.261 -29.8053 270.577C-30.5418 272.604 -30.91 274.815 -30.7259 277.026C-30.5418 279.053 -30.3577 281.265 -30.3577 283.291C-30.5418 288.451 -31.2783 293.426 -35.329 297.111C-36.2496 298.032 -37.1702 298.954 -37.9067 299.875C-45.0874 307.983 -53.1888 314.985 -62.0267 321.25C-64.7885 323.277 -67.5504 325.303 -70.1281 327.515C-71.7852 328.989 -73.6264 330.279 -75.6518 331.2C-75.8359 330.831 -75.8359 330.647 -75.8359 330.463C-73.4423 324.935 -72.1534 319.039 -68.8392 313.695C-65.7092 308.535 -63.1314 303.008 -59.6331 298.032C-56.6872 293.794 -54.1094 289.372 -52.6365 284.397C-52.4523 283.476 -51.9 282.923 -51.5317 282.186C-49.3223 279.053 -47.6652 275.921 -46.1922 272.42C-44.1668 268.182 -42.5097 263.759 -40.8526 259.337C-40.1161 257.31 -38.8273 255.652 -38.0908 253.625C-36.0654 248.466 -34.2242 243.306 -30.7259 238.884C-29.0688 236.673 -27.0434 234.646 -25.3864 232.619C-21.3357 227.46 -16.5485 223.222 -12.1295 218.431C-10.6566 216.772 -8.81533 215.667 -7.52647 214.193C-4.94876 211.429 -2.55516 208.48 0.3908 206.085C5.91447 201.478 10.7016 196.319 17.3301 193.187C20.6443 191.713 23.9585 190.238 27.4568 189.317C30.771 188.58 34.0852 188.212 37.3994 187.474C39.0565 187.106 40.7136 186.185 42.3707 186C48.4467 185.079 54.3387 183.421 60.4147 182.684C65.5701 182.131 70.5414 181.21 75.6969 180.657C82.8776 180.104 90.2425 179.367 97.2392 181.578C97.9757 180.841 96.8709 179.92 97.6074 179.551C99.2645 179.92 99.4487 179.92 100.001 178.446C100.369 177.524 101.106 177.524 101.842 177.34C104.604 176.971 106.998 176.05 109.575 174.945C111.785 174.023 113.994 173.102 116.204 171.996C120.991 169.785 125.594 167.39 129.276 163.336C129.645 162.967 129.829 162.599 130.381 162.967C130.013 164.626 128.724 165.731 128.356 167.205C127.988 168.864 127.435 170.154 125.594 170.154C125.41 170.154 125.226 170.338 125.226 170.338C125.042 170.522 124.858 170.706 124.858 170.891C124.858 171.075 125.226 171.259 125.41 171.259C125.778 171.259 126.146 171.075 126.699 170.891C129.829 170.338 132.959 169.417 136.089 169.048C141.613 168.311 147.32 169.048 153.028 168.311C153.765 168.311 154.501 168.311 155.238 169.417C153.397 169.601 152.108 170.891 150.635 171.259C147.136 171.996 143.822 172.918 140.14 173.102C136.089 173.286 132.407 174.392 128.724 175.682C127.988 176.05 127.803 176.603 128.54 177.156C129.092 177.524 129.645 177.709 130.197 177.709C131.854 177.709 133.511 178.446 134.984 179.183C137.194 180.104 139.403 181.025 141.797 181.947C146.768 183.973 151.739 186.185 156.711 188.764C157.815 189.317 158.92 190.054 159.841 191.16C158.92 191.528 158.368 190.975 157.815 190.791C155.974 190.238 154.133 189.317 152.108 188.949C147.689 188.396 143.27 189.133 138.851 188.212C136.826 187.659 134.432 187.843 132.591 186.737C131.302 185.816 129.645 185.448 128.54 184.342C128.172 183.973 127.435 183.605 126.883 184.158C126.331 184.711 126.699 185.448 127.067 186C127.619 186.922 128.356 187.659 128.908 188.396C131.854 192.634 134.8 196.688 137.746 201.11C139.035 202.953 140.324 204.795 141.244 206.822C141.613 207.559 141.797 208.296 141.981 209.218C141.981 209.77 142.165 210.507 141.429 210.692C140.692 210.876 140.14 210.507 139.956 209.77C139.771 209.033 139.403 208.112 139.219 207.375C138.667 204.242 137.01 201.663 134.8 199.452C134.064 198.715 133.511 197.977 132.775 197.056C130.381 193.924 127.619 191.528 124.121 189.87C122.464 189.133 120.991 187.843 119.15 187.659C126.331 192.265 127.988 193.555 128.908 195.766C127.988 195.398 127.067 195.029 126.331 194.661C124.305 193.371 122.28 192.081 119.518 192.45C118.597 192.45 117.677 191.897 116.94 191.528C116.388 191.16 115.836 190.791 115.099 190.791C113.442 190.607 112.153 189.501 111.048 188.396C109.207 186.553 107.366 184.526 105.709 182.315C103.868 179.735 101.658 179.735 99.2645 182.131C99.6328 182.684 100.185 182.684 100.922 182.499C103.315 181.762 104.604 182.684 105.893 184.711C108.102 188.212 110.864 190.975 114.915 192.45C117.309 193.371 119.702 193.739 122.096 194.476C127.803 196.319 133.143 198.899 135.168 205.164C135.353 205.717 135.537 206.085 135.905 206.454C137.194 208.665 138.298 210.876 138.851 213.456C139.219 214.745 140.14 215.851 140.324 217.141C140.324 217.509 140.876 217.878 141.429 217.694C141.981 217.509 142.165 217.141 141.981 216.772C141.429 215.667 142.165 215.114 142.717 214.377C143.27 213.824 143.638 212.903 143.822 212.166C144.559 209.77 143.822 207.559 142.717 205.348C142.533 204.795 141.981 204.427 142.533 203.69C143.638 204.795 144.375 206.085 144.743 207.375C146.032 210.323 147.873 212.719 150.819 214.008C151.739 214.377 152.476 214.93 153.028 215.667C154.133 217.141 155.606 217.509 157.447 217.509C161.13 217.509 164.444 216.22 167.758 215.298C169.968 214.745 171.072 212.903 171.993 210.876C172.177 210.507 172.177 209.955 171.809 209.77C171.44 209.402 171.072 209.77 170.704 209.955C169.783 210.692 169.231 211.981 167.942 212.534C164.812 213.824 161.682 215.298 158 215.482C156.711 215.482 155.422 215.482 154.317 214.193C153.397 213.271 152.292 212.719 151.187 212.166C149.53 211.244 148.425 210.139 147.505 208.48C145.295 204.611 143.086 200.557 139.956 197.24C138.851 195.951 137.562 194.661 137.194 192.818C138.114 191.897 139.403 191.897 140.508 192.081C143.454 192.081 146.4 192.265 149.346 192.265C150.635 192.265 151.924 192.634 152.844 191.528C153.212 190.975 153.949 191.344 154.501 191.528C157.815 192.265 160.761 193.555 163.339 195.582C163.892 195.951 164.444 196.688 165.18 196.135C165.733 195.582 165.549 194.661 165.364 193.924C165.18 193.555 164.996 193.371 164.812 193.002C162.787 190.607 160.577 188.396 157.631 187.106C156.342 186.553 155.238 185.816 154.133 185.263C153.765 185.079 153.028 184.895 153.212 184.158C153.397 183.421 153.949 183.052 154.685 183.052C155.422 183.052 156.158 183.236 156.895 183.605C157.815 184.158 158.736 184.711 159.657 185.448C161.13 186.553 162.787 187.29 164.812 187.29C168.863 187.474 172.729 187.106 176.412 185.632C176.964 185.448 177.701 185.079 178.253 185.079C180.647 185.448 182.856 184.711 184.881 183.421C185.25 183.236 185.618 182.868 185.986 183.236C187.827 184.526 189.485 185.816 190.589 187.843C191.326 189.317 190.773 190.423 190.405 191.713C189.3 194.476 188.932 197.24 189.484 200.189C189.853 202.216 188.932 203.874 187.275 204.979C185.25 206.454 183.04 207.559 180.463 208.112C178.99 208.296 177.332 208.665 175.675 208.48C175.859 209.77 176.596 209.77 177.148 209.77C179.726 210.139 182.488 209.77 184.881 208.665C190.405 207.191 192.799 204.795 191.878 198.899ZM132.222 113.216C132.222 113.032 132.222 113.216 132.222 113.216V113.216ZM179.174 94.6057C178.621 94.79 178.069 94.9743 177.517 94.6057C177.332 94.4215 177.517 94.0529 177.701 93.8687C178.253 93.3159 178.805 93.3159 179.358 93.8687C179.542 94.2372 179.358 94.6057 179.174 94.6057ZM261.845 80.4175C262.949 80.9702 263.87 81.8916 264.238 83.1814C264.606 84.6555 264.791 86.3139 264.791 87.788C264.791 89.4464 263.502 90.1834 261.66 91.289C262.213 87.788 262.397 85.024 260.924 82.2601C260.74 81.8916 260.556 81.523 260.556 81.1545C260.74 80.4175 261.108 80.0489 261.845 80.4175ZM248.956 57.2003C249.14 57.3845 249.324 57.5688 249.508 57.5688C251.534 57.016 253.007 58.6744 254.848 58.8587C256.505 59.0429 257.426 60.1485 257.61 61.6226C257.794 62.3597 257.978 63.281 257.978 64.2023C257.978 64.7551 257.978 65.4921 258.346 65.8607C260.74 68.6246 260.372 71.9413 259.083 74.8896C257.978 78.022 258.162 80.786 259.451 83.5499C260.556 85.5768 260.372 87.788 259.819 89.6306C259.267 91.289 259.083 92.9474 259.083 94.6057C258.899 96.8169 258.715 97.0012 256.689 97.554C254.848 98.1067 252.823 98.6595 250.797 97.9225C250.061 97.5539 249.508 97.9225 248.956 98.4753C246.194 100.871 243.248 102.898 239.934 104.372C235.883 106.399 232.201 105.846 228.334 104.003C226.861 103.266 225.388 102.161 223.731 102.898C223.363 103.082 222.995 102.898 222.811 102.529C222.074 101.423 221.154 100.502 220.233 99.7651C220.049 99.5808 219.865 99.2123 219.865 98.8438C220.049 98.4753 220.417 98.4753 220.785 98.4753C222.627 98.4753 224.468 98.4753 226.309 98.4753C226.861 98.4753 227.23 98.6595 227.782 98.291C226.677 97.7382 224.652 97.3697 222.627 97.3697C221.706 97.3697 220.969 97.3697 220.049 97.3697C219.681 97.3697 219.312 97.1854 219.496 96.6326C219.496 96.2641 219.865 96.0798 220.233 96.0798C221.154 96.0798 222.258 96.2641 223.179 96.2641C225.204 96.0798 227.414 96.8169 229.439 95.3428C228.15 94.79 226.493 95.3428 224.652 94.79C229.071 92.7631 233.306 93.8687 237.54 93.8687C237.725 92.7631 236.988 92.9474 236.62 92.7631C232.937 92.026 229.071 92.026 225.388 92.3946C224.836 92.3946 224.468 92.5788 223.915 92.5788C223.547 92.5788 223.363 92.3946 223.363 92.0261C223.363 91.289 225.573 89.4464 225.941 89.6306C227.782 90.5519 229.439 89.6306 231.096 89.4464C233.858 89.0778 236.804 89.0778 239.75 89.6306C238.461 88.525 237.54 88.1565 235.331 88.1565C233.858 88.1565 232.385 88.1565 230.728 88.1565C229.255 88.1565 227.598 88.3408 225.941 88.7093C226.309 87.4195 227.23 86.6824 226.861 85.3926C226.677 84.6555 227.598 84.287 228.334 83.9185C231.833 82.4444 235.147 81.8916 238.829 82.9971C239.013 82.9971 239.382 83.1814 239.566 83.1814C240.486 83.3657 241.591 83.9185 242.144 82.9971C242.88 81.8916 241.591 81.523 241.039 80.786C239.934 79.1276 238.461 77.6535 237.172 76.1794C235.331 74.3368 233.306 73.0469 230.728 72.3099C228.887 71.7571 227.23 70.6515 225.388 69.3617C227.414 68.6246 229.071 69.5459 230.728 69.1774C230.544 68.6246 229.991 68.0718 231.096 67.8876C232.385 67.7033 233.674 67.7033 235.147 67.8876C236.988 68.0718 238.829 68.2561 240.486 68.2561C237.356 66.9662 234.042 66.782 230.912 66.5977C228.518 66.4134 225.941 66.782 223.363 66.782C225.02 64.7551 227.782 64.3865 239.013 63.8338C238.829 63.0967 238.277 63.281 237.909 63.0967C232.937 62.1754 228.15 62.3597 223.547 64.018C222.811 64.2023 221.89 64.5708 221.706 65.3079C221.154 67.3348 219.681 66.9662 218.208 66.782C217.471 66.782 216.551 66.9662 215.63 66.0449C216.735 64.018 218.944 63.8338 220.785 63.0967C222.811 62.5439 224.284 60.7013 226.493 60.8855C224.652 60.3328 224.652 60.517 220.969 61.6226C219.312 62.1754 217.655 63.281 215.63 63.281C218.392 59.9642 225.204 58.1216 232.753 58.6744C232.385 57.7531 231.649 57.7531 230.912 57.7531C227.598 57.3845 224.468 57.9373 221.522 58.8587C220.785 59.0429 219.681 59.9642 219.128 58.8587C218.576 57.7531 219.865 57.3845 220.785 57.016C222.995 55.9104 225.204 54.8049 227.598 53.6993C229.807 52.778 232.017 52.5937 234.41 53.3307C238.093 54.4363 241.959 54.9891 245.826 55.7262C247.299 56.279 248.404 56.0947 248.956 57.2003ZM221.706 94.6057C221.522 94.4215 221.338 94.2372 221.522 94.0529C221.706 93.6844 222.074 93.6844 222.258 94.0529C222.442 94.2372 222.442 94.4215 222.258 94.6057C222.074 94.6057 221.89 94.79 221.706 94.6057ZM245.826 47.9871C246.931 49.4612 248.404 50.9353 248.22 53.1465C248.035 54.2521 247.667 54.8049 246.747 54.4363C245.274 54.0678 243.801 53.515 242.144 53.3307C241.223 53.1465 241.039 52.5937 241.407 51.8566C242.144 50.3825 242.88 48.9084 243.616 47.6186C243.985 46.513 244.721 46.6973 245.826 47.9871ZM193.535 67.1505C193.351 64.9393 194.272 62.9124 193.903 60.8855C193.719 59.5957 193.719 58.1216 193.719 56.8318C193.719 55.7262 193.903 54.6206 194.088 53.6993C194.088 53.515 194.456 53.3307 194.64 53.1465C195.008 52.9622 195.008 53.3307 195.192 53.515C195.376 53.8835 195.561 54.0678 195.745 54.4363C196.113 57.2003 197.034 59.9642 196.849 62.9124C196.665 64.9393 195.745 66.4134 193.535 67.1505ZM199.059 62.7282C199.795 60.7013 201.452 59.2272 202.741 57.5688C203.11 57.2003 203.662 56.8318 204.03 57.2003C204.583 57.5688 204.398 58.1216 204.03 58.4901C203.11 60.7013 201.084 61.6226 199.059 62.7282ZM206.976 55.3576C206.608 54.0678 207.16 53.1465 207.897 52.4094C211.947 48.1714 213.236 42.8277 213.789 37.2998C213.789 36.3785 213.973 35.6415 214.341 34.9044C215.262 32.8775 215.998 32.1405 218.208 32.509C221.338 33.0618 224.468 33.0618 227.782 33.0618C229.991 33.0618 230.36 33.4303 230.36 35.6415C230.36 36.3785 230.176 36.9313 231.096 37.1156C231.833 37.2998 232.201 36.7471 232.385 36.3785C233.49 34.3516 235.515 33.9831 237.54 33.6146C238.645 33.4303 239.382 33.7988 239.75 34.9044C240.486 37.2998 241.407 39.6953 242.512 41.9064C243.064 43.012 242.696 44.1176 242.328 45.4074C241.775 47.8028 239.75 49.6455 239.382 52.0409C239.198 52.5937 238.829 52.4094 238.277 52.4094C237.356 52.2252 236.436 52.2252 235.515 51.8566C231.833 50.3825 228.518 51.6724 225.388 53.3307C224.652 53.6993 223.915 54.4363 222.811 54.2521C222.811 53.515 223.179 53.3308 223.363 52.9622C223.731 52.4094 223.547 52.0409 223.179 51.6724C222.811 51.3039 222.258 51.4881 222.074 51.6724C220.049 53.6993 216.919 52.4094 214.525 54.0678C215.446 52.2252 217.103 51.3039 218.392 50.1983C220.233 48.5399 221.522 46.513 223.179 44.6704C223.363 44.4861 223.547 44.1176 223.547 43.7491C223.547 43.3805 223.363 43.1963 223.179 43.012C222.811 42.8277 222.627 43.012 222.258 43.1963C221.154 44.4861 220.417 45.9602 219.128 47.2501C218.392 47.8028 218.023 48.7242 216.735 48.1714C215.998 47.8028 215.446 48.5399 215.078 49.0927C212.868 51.3039 209.922 53.3307 206.976 55.3576ZM212.684 54.8049C212.5 54.8049 212.5 54.9891 212.316 54.9891V54.8049C212.5 54.8049 212.5 54.6206 212.684 54.6206C212.684 54.8049 212.684 54.8049 212.684 54.8049ZM205.503 58.6744C206.24 57.3845 210.843 53.8835 212.132 53.515C211.211 56.6475 208.449 57.3845 205.503 58.6744ZM199.243 65.6764C203.294 62.3596 207.713 59.9642 212.316 57.3845C212.5 57.2003 212.868 57.3845 213.236 57.3845C213.236 58.3059 212.5 58.6744 211.947 59.0429C209.554 60.8855 207.713 63.0967 206.24 65.6764C204.214 68.8089 202.189 71.7571 199.427 74.3368C199.243 74.521 199.059 74.8896 198.691 75.0738C198.507 75.4424 198.322 75.8109 198.691 76.1794C199.059 76.5479 199.427 76.5479 199.795 76.3637C200.348 75.9951 200.716 75.6266 201.268 75.2581C202.741 73.9682 204.398 72.6784 206.056 71.5728C210.659 68.4403 215.63 67.8876 220.969 69.1774C222.627 69.5459 224.1 70.8358 225.573 71.5728C227.598 72.4941 229.807 73.4155 231.833 74.7053C229.991 75.2581 228.15 75.8109 226.125 75.9951C223.179 76.1794 220.417 77.1007 217.471 77.8378C211.763 79.4961 206.056 81.523 200.532 83.9185C201.821 84.287 202.925 83.5499 204.03 83.1814C208.265 81.7073 212.316 79.6804 216.735 78.9434C221.522 78.2063 226.309 76.5479 231.28 77.6535C232.017 77.8378 232.937 77.8378 233.674 78.2063C234.41 78.5748 234.963 78.9434 235.515 77.8378C235.699 77.285 236.252 77.4692 236.62 77.8378C236.988 78.022 237.909 79.1276 238.461 80.0489C236.62 80.786 232.937 80.6017 231.464 79.4961C230.544 78.9434 229.807 78.9434 229.071 79.4961C227.782 80.2332 226.493 80.9702 225.388 82.2601C224.1 83.9185 222.627 85.2083 220.785 86.3139C217.287 88.3408 214.157 90.5519 210.29 91.8418C207.897 92.7631 205.319 92.7631 202.741 92.7631C202.005 92.7631 201.268 92.5788 200.9 93.1316C200.532 93.8687 199.795 94.4215 200.164 95.3428C200.532 96.0798 201.268 95.8956 202.005 95.8956C202.557 95.8956 203.11 95.8956 203.846 95.8956C209.738 94.79 214.525 96.6326 218.944 100.318C220.233 101.423 221.338 102.529 222.258 103.635C223.179 104.74 223.731 105.846 224.468 107.136C221.706 106.399 219.865 104.372 217.287 103.45C214.709 102.529 212.132 101.608 209.37 100.686C206.792 99.9494 204.214 98.6595 201.452 99.7651C209.554 101.239 216.919 103.819 223.731 109.347C222.442 109.715 221.522 109.347 220.785 108.978C217.103 106.583 212.868 105.846 208.817 105.109C204.583 104.187 200.716 102.529 197.218 99.9494C195.192 98.4753 193.167 97.7382 190.405 97.7382C187.459 97.7382 185.066 96.0798 182.672 94.2372C181.935 93.6844 181.383 93.1316 180.831 92.5788C179.358 91.289 179.174 90.5519 180.463 89.2621C182.672 87.2352 184.513 84.6555 186.354 82.4444C188.748 79.4961 190.773 76.3637 192.799 73.0469C193.535 71.7571 193.903 70.283 195.745 69.9145C196.481 69.7302 196.665 68.8089 196.849 68.0718C197.586 67.3348 198.322 66.5977 199.243 65.6764ZM176.228 90.3677C176.412 89.8149 176.596 89.4464 176.964 89.0778C179.91 85.5768 183.04 82.2601 186.17 78.7591C186.354 78.5748 186.539 78.5748 186.723 78.5748C186.723 79.8647 185.986 80.6017 185.434 81.1545C183.04 84.287 181.015 87.4195 178.99 90.7362C178.805 91.1047 178.437 91.6575 177.885 91.8418C177.332 92.026 176.964 92.2103 176.412 91.8418C176.044 91.4733 176.044 90.9205 176.228 90.3677ZM140.324 37.2998C140.876 37.4841 141.429 37.1156 141.981 37.1156C142.349 37.1156 142.533 36.9313 142.902 36.747C147.689 35.6415 150.635 36.7471 151.924 41.7222C151.555 42.4592 151.003 42.0907 150.635 42.0907C149.53 42.0907 148.609 42.275 147.873 42.8277C144.19 45.2232 140.324 47.4343 136.641 49.8297C137.562 50.1983 138.483 49.8298 139.219 49.277C140.324 48.3556 141.797 47.8028 142.902 47.0658C144.559 45.9602 146.584 45.5917 148.241 44.4861C149.53 43.5648 151.003 44.1176 152.476 43.7491C152.844 43.5648 153.028 43.9333 153.212 44.3018C153.397 44.6704 153.212 45.2232 152.844 45.4074C152.108 45.776 151.371 46.1445 150.451 46.3287C149.714 46.6973 148.978 46.8815 149.346 47.9871C149.714 48.9084 150.451 48.9084 151.187 48.7242C151.924 48.5399 152.66 47.6186 153.581 48.1714C154.317 48.7242 153.949 49.8297 154.133 50.5668C154.501 51.6724 154.869 52.5937 155.238 53.6993C155.79 55.5419 154.685 57.2003 152.66 57.016C149.346 56.8318 146.216 57.5688 143.086 58.1216C140.324 58.6744 137.746 60.517 135.353 62.1754C134.432 62.7282 133.695 63.281 132.775 63.8338C131.118 64.7551 129.829 64.2023 128.908 62.5439C128.54 61.8069 128.172 61.6226 127.619 61.6226C126.883 61.4383 125.962 61.4383 124.673 61.4383C126.146 60.1485 127.435 59.78 128.724 59.4114C129.276 59.2272 130.013 59.4114 130.197 59.9642C130.749 61.0698 131.486 60.7013 132.222 60.1485C132.775 59.78 133.143 59.4114 132.959 58.6744C132.775 58.1216 132.222 58.1216 131.67 58.1216C129.829 58.3059 128.172 58.1216 126.515 58.8587C125.594 59.2272 124.489 59.5957 123.2 59.2272C124.121 57.7531 125.594 57.3845 126.699 56.6475C127.435 56.279 128.54 55.9104 128.172 54.9891C127.803 53.6993 126.515 54.4363 125.778 54.6206C124.673 54.8049 123.753 55.3576 122.464 55.7262C122.648 54.2521 123.2 53.3307 124.305 52.5937C125.042 52.0409 125.594 51.3039 125.962 50.3825C126.331 49.8297 126.331 49.4612 125.778 49.0927C125.41 48.9084 125.042 49.0927 124.673 49.4612C124.305 49.8297 124.121 50.014 123.937 50.3825C122.648 52.5937 120.991 54.6206 119.15 56.279C118.045 57.2003 118.045 58.6744 116.572 59.4114C116.02 58.6744 116.572 58.1216 116.94 57.7531C120.623 53.8835 123.2 49.4612 124.858 44.4861C125.042 44.1176 125.042 43.5648 125.41 43.3805C127.067 43.012 127.803 41.3536 129.092 40.4323C129.829 39.8795 130.749 39.1425 131.67 38.9582C134.616 38.2212 137.378 36.7471 140.324 37.2998ZM111.048 65.4921C111.969 64.018 113.074 62.7282 113.994 61.2541C114.178 60.8855 114.547 60.8855 114.915 61.0698C115.283 61.2541 115.283 61.6226 115.099 61.9911C113.994 63.4652 112.89 64.9393 111.048 65.4921ZM108.102 68.8089C107.734 68.9931 107.55 69.1774 107.182 68.8089C106.998 68.4403 107.182 68.0718 107.366 67.8876C107.55 67.7033 107.918 67.8876 108.102 67.8876C108.655 68.2561 108.471 68.6246 108.102 68.8089ZM126.699 21.2689C128.54 20.7161 130.197 20.1633 132.038 19.6106C133.511 19.242 133.695 19.4263 133.511 20.9004C133.327 22.3745 133.88 22.9273 135.353 22.1902C135.905 22.006 136.457 21.6375 137.01 21.4532C139.035 20.3476 140.692 20.5319 142.533 22.1902C143.454 23.1116 143.638 23.8486 143.638 25.1385C143.638 28.4552 142.533 31.4034 141.797 34.5359C141.613 35.2729 141.244 35.6415 140.508 35.4572C138.298 35.0887 136.457 36.01 134.432 36.5628C133.511 36.747 132.591 37.2998 131.486 36.9313C130.934 36.747 130.565 37.1156 130.197 37.4841C129.461 38.0369 128.908 38.5897 128.172 38.9582C127.435 39.511 126.883 40.8008 125.962 40.2481C124.858 39.6953 125.226 38.2212 125.226 37.2998C125.226 35.6415 125.41 33.7988 126.331 32.1405C127.435 30.1136 127.067 28.4552 125.594 26.7968C124.121 24.9542 124.121 23.4801 125.594 22.1902C125.778 21.6375 126.146 21.2689 126.699 21.2689ZM94.2932 15.004C94.4774 13.1613 95.398 11.6872 96.6868 10.3974C97.6074 9.66034 98.1598 8.55476 98.528 7.44918C99.2645 5.23802 100.738 3.76391 102.947 2.84259C104.236 2.2898 105.525 2.10554 106.814 3.02686C107.918 3.94817 109.207 3.94817 110.68 3.57965C114.178 2.84259 116.572 4.13244 117.677 7.44918C118.229 9.10755 119.15 10.3974 119.702 12.0558C120.807 14.6354 121.727 17.2151 122.648 19.7948C122.832 20.3476 122.832 20.9004 122.28 21.0847C121.912 21.2689 121.543 20.9004 121.175 20.7161C120.807 20.3476 120.439 19.9791 120.254 19.6106C119.702 18.505 118.966 17.5837 117.677 17.3994C116.94 17.2151 116.388 16.6623 115.836 16.1096C114.915 15.004 113.626 14.6354 112.337 14.0827C109.575 13.1613 107.55 15.004 105.525 16.4781C103.499 17.9522 101.842 19.6106 100.001 21.0847C99.4487 21.6375 98.7122 22.3745 97.9757 22.006C95.9503 21.2689 95.5821 22.5588 94.8456 24.4014C93.3726 22.5588 92.2679 21.2689 90.2425 21.8217C90.0584 20.5319 90.979 20.1633 91.5314 19.7948C93.1885 18.505 94.1091 17.0309 94.2932 15.004ZM86.5601 48.1714C86.5601 45.5917 86.376 43.012 85.2712 40.6166C84.5347 38.9582 83.7982 37.2998 82.5094 35.8257C80.8523 33.7988 81.0364 31.7719 81.7729 29.745C82.6935 27.5339 84.7189 26.4283 86.9283 26.4283C88.0331 26.4283 88.7696 26.244 89.3219 25.1385C89.506 24.9542 89.8743 24.7699 90.0584 24.5857C90.6108 24.2171 91.3473 24.0329 91.8996 24.7699C92.452 25.3227 91.8996 25.8755 91.5314 26.244C91.3473 26.4283 91.1631 26.6126 90.979 26.9811C92.0838 27.1654 92.8203 26.244 93.7409 26.9811C94.4774 27.5339 94.8456 28.4552 95.398 29.1923C96.8709 31.2191 96.871 33.6146 97.0551 36.01C97.4233 41.5379 97.2392 46.8815 96.6868 52.4094C96.6868 52.5937 96.871 52.778 97.0551 53.1465C98.3439 50.3825 98.3439 47.8028 98.1598 45.2232C98.1598 42.0907 98.3439 38.7739 98.3439 35.6415C98.3439 32.6933 98.1598 29.9293 96.1345 27.5339C95.0297 26.244 95.5821 25.1385 97.2392 24.7699C98.1598 24.5857 99.0804 24.7699 99.8169 25.3227C101.29 26.4283 102.763 27.5339 103.499 29.3765C104.972 32.8775 106.261 36.1943 106.814 39.8795C106.998 34.7202 105.893 29.9293 102.579 25.6912C101.106 23.8486 100.922 23.2958 102.763 21.6375C104.972 19.7948 106.998 17.7679 109.575 16.6623C110.864 16.1096 112.153 15.9253 113.442 16.8466C115.467 18.3207 117.861 19.242 119.15 21.6375C119.334 22.006 119.702 22.1902 120.07 22.5588C120.254 22.743 120.439 22.9273 120.623 22.9273C122.096 23.8486 121.727 25.3227 122.096 26.7968C122.28 28.0867 124.673 28.0867 124.858 29.745C124.858 30.2978 124.858 30.8506 124.673 31.2191C123.2 33.7988 123.016 36.747 123.2 39.511C123.569 44.3018 122.096 48.5399 119.334 52.5937C119.15 52.778 119.15 53.1465 118.966 53.1465C116.388 54.4363 115.651 57.2003 113.994 59.4114C113.81 59.5957 113.626 59.78 113.258 59.9642C112.89 58.6744 113.442 57.5688 113.994 56.6475C114.547 55.5419 115.099 54.4363 115.467 53.1465C115.836 51.6724 116.204 50.3825 114.915 49.0927C113.626 47.8028 114.178 46.3287 114.547 44.8546C114.731 44.4861 114.731 43.9333 114.178 43.7491C113.626 43.5648 113.442 43.9333 113.074 44.3018C112.337 45.4074 112.153 46.6973 111.969 47.8028C111.785 49.0927 111.969 50.3825 110.312 50.7511C108.102 53.8835 104.42 55.7262 101.842 58.6744C101.106 59.5957 100.185 60.7013 98.528 60.7013C98.7122 59.5957 99.4487 59.0429 100.001 58.4901C102.395 55.9104 104.788 53.515 106.998 50.9353C107.55 50.1983 108.102 49.4612 108.655 48.7242C108.839 48.3556 109.023 47.9871 108.655 47.6186C108.287 47.2501 107.918 47.6186 107.55 47.8028C107.182 48.1714 106.814 48.7242 106.445 49.0927C103.683 52.4094 100.922 55.9104 97.6074 58.8587C97.2392 59.2272 97.0551 59.4114 96.3186 59.9642C96.6868 58.3059 97.7916 57.7531 98.1598 56.6475C98.3439 56.279 98.528 55.9104 98.1598 55.5419C97.7916 55.1734 97.2392 55.1734 96.8709 55.5419C96.3186 56.0947 95.7662 56.6475 95.2139 57.3845C94.2932 59.0429 93.1885 60.3328 91.7155 61.9911C91.3473 60.1485 92.2679 58.6744 92.8203 57.3845C93.0044 56.8318 93.5567 56.4632 93.925 55.9104C94.2932 55.3576 95.0297 54.6206 94.4774 53.8835C93.925 53.1465 93.1885 53.8835 92.452 53.8835C92.452 52.5937 93.0044 51.4881 93.1885 50.3825C93.1885 50.014 93.3726 49.6455 92.8203 49.4612C92.452 49.277 92.2679 49.4612 91.8996 49.8297C91.3473 50.3825 91.3473 51.1196 91.1631 51.6724C90.6108 53.1465 90.2425 54.6206 89.6902 56.4632C87.6648 53.8835 86.5601 51.3039 86.5601 48.1714ZM91.3473 67.7033C91.8996 68.0718 91.7155 68.6246 91.3473 68.9931C90.979 69.3617 90.6108 69.9144 89.8743 69.7302C89.3219 69.1774 89.5061 68.6246 89.6902 68.0718C90.2425 67.3348 90.979 67.3348 91.3473 67.7033ZM92.6361 65.6764C92.8203 65.4921 93.0044 65.4921 93.1885 65.3079C93.1885 65.4921 93.1885 65.6764 93.1885 65.8607C93.0044 66.0449 92.8203 66.2292 92.6361 66.2292C92.6361 66.0449 92.6361 65.6764 92.6361 65.6764ZM85.0871 86.8667C85.0871 86.4981 85.2712 85.9454 85.0871 85.5768C83.7983 80.786 83.7982 76.1794 84.3506 71.3886C84.5347 70.6515 84.7189 69.9145 83.9824 68.9931C82.6935 69.9145 82.6935 71.2043 82.5094 72.4941C82.3253 75.9951 82.6935 79.3119 83.0618 82.8129C83.2459 83.5499 83.43 84.287 83.2459 85.024C82.3253 85.2083 81.7729 84.8398 81.4047 84.1027C81.0364 83.3657 80.6682 82.8129 80.4841 82.0758C79.0111 76.7322 78.6428 71.3886 81.2205 66.0449C82.1411 64.018 83.0618 61.8069 83.6141 59.78C83.9824 58.6744 84.5347 57.7531 85.0871 56.8318C86.0077 55.5419 86.9283 55.7262 87.4807 57.2003C88.4013 60.1485 88.7695 62.9124 87.6648 65.8607C86.9283 67.519 86.7442 69.3617 86.7442 71.02C86.7442 71.9413 86.5601 72.8627 87.6648 73.4155C88.2172 73.784 88.2172 74.3368 88.2172 75.0738C88.0331 77.1007 88.9537 78.7591 89.506 80.9703C90.4267 80.0489 90.0584 79.3119 89.8743 78.7591C89.6902 77.1007 89.8743 75.4423 90.7949 73.9682C91.5314 72.8627 92.0838 71.5728 92.6361 70.4672C93.925 67.7033 95.7662 65.3079 98.3439 63.4652C100.369 61.9911 102.21 60.517 104.052 58.8587C104.236 58.6744 104.604 58.4901 104.972 58.4901C105.525 59.0429 104.972 59.5957 104.788 60.3328C103.131 64.5708 100.553 68.0718 97.9757 71.7571C96.3186 74.1525 94.2932 76.5479 93.0044 79.3119C95.398 76.7322 97.6074 73.9682 99.8169 71.02C102.026 68.2561 103.499 64.9393 105.525 61.9911C107.55 59.0429 108.471 55.5419 110.864 52.778C111.601 53.6993 111.232 54.4363 111.048 54.9891C109.76 59.5957 108.287 64.2023 106.261 68.4403C105.525 69.9144 104.788 71.3885 103.499 72.4941C101.658 73.9682 100.553 75.8109 99.0804 77.6535C95.9503 81.3388 92.6361 84.6555 88.9537 88.1565C90.0584 88.8936 90.6108 88.1565 91.1631 87.6037C92.8203 86.1296 94.6615 84.6555 96.1345 82.9971C98.1598 81.1545 100.185 79.1276 101.842 77.1007C104.788 73.5997 108.471 71.2043 112.337 68.9931C113.258 68.4403 113.994 67.519 115.283 67.1505C116.94 66.5977 118.413 66.0449 120.254 66.2292C120.807 66.2292 121.359 66.2292 121.727 66.0449C124.305 64.2023 126.883 65.8607 129.461 65.8607C129.829 65.8607 130.197 66.0449 130.197 66.4134C130.197 66.782 129.829 66.9662 129.461 66.9662H129.276C123.569 67.3348 119.518 70.8358 115.467 74.1525C114.178 75.2581 112.521 75.8109 111.048 77.4692C112.521 77.1007 113.258 75.6266 114.547 76.1794C114.731 76.9165 114.178 77.285 113.81 77.6535C111.785 79.6804 110.128 82.0758 108.839 84.6555C107.55 87.0509 105.893 89.0778 103.499 90.7362C102.21 91.6575 100.738 91.8418 99.2645 92.0261C97.2392 92.2103 95.2138 92.3946 93.1885 92.5788C92.8203 92.5788 92.452 92.5788 92.2679 92.3946C91.8996 92.2103 91.7155 92.0261 91.5314 91.6575C91.5314 91.289 91.8996 91.1047 92.0838 90.9205C94.4774 90.1834 97.0551 89.2621 99.6328 88.7093C100.553 88.525 101.474 88.525 102.026 87.2352C100.553 86.6824 99.2645 87.0509 97.9757 87.4195C95.398 88.3408 92.8203 89.2621 90.4267 90.3677C88.0331 91.6575 84.903 89.6306 85.0871 86.8667ZM85.6395 98.291C83.6141 99.7651 82.1412 101.792 79.7476 103.635C80.2999 100.686 82.8776 99.7651 83.43 97.554C83.9824 95.5271 84.5347 93.3159 85.2712 90.7362C87.1125 93.1316 90.2425 92.7631 92.2679 94.6057C90.0584 96.2641 87.6648 96.8169 85.6395 98.291ZM6.83508 178.998C9.96516 174.945 12.9111 170.891 17.6983 168.495C14.0159 171.996 10.5175 175.497 6.83508 178.998ZM52.8657 136.249C56.1799 130.353 60.0465 125.193 65.0178 121.14C61.5194 126.668 58.0211 131.827 52.8657 136.249ZM-60.3696 260.258C-60.3696 260.074 -60.3696 259.89 -60.3696 259.89H-60.1855C-60.1855 260.074 -60.1855 260.258 -60.1855 260.258H-60.3696ZM-64.2362 274.631C-63.1314 270.393 -62.9473 265.786 -60.7379 261.733C-60.7379 270.762 -62.2108 279.422 -64.7885 288.082C-65.8933 286.24 -65.525 279.606 -64.2362 274.631ZM-90.9339 360.682C-90.7498 360.682 -90.5657 360.866 -90.5657 361.051C-90.7498 361.051 -91.1181 361.051 -90.9339 360.682ZM-90.7498 361.235C-90.7498 361.051 -90.5657 361.051 -90.7498 361.235C-90.5657 361.051 -90.5657 361.051 -90.7498 361.235C-90.5657 361.051 -90.7498 361.051 -90.7498 361.235ZM-92.9593 367.5H-93.1434C-93.3275 366.947 -93.1434 366.763 -92.591 366.578C-92.591 366.947 -92.591 367.315 -92.9593 367.5ZM-94.8005 372.291C-95.3529 373.949 -95.7211 375.792 -96.6417 377.45C-97.3782 375.239 -96.4576 373.58 -94.8005 372.291ZM-94.9846 372.291C-94.8005 372.291 -94.8005 372.291 -94.9846 372.291V372.291ZM-97.9306 379.845C-97.5623 378.74 -97.5623 378.003 -96.6417 377.45C-96.8258 378.371 -97.01 379.108 -97.9306 379.845ZM-99.0353 383.715C-99.0353 383.531 -99.0353 383.531 -99.0353 383.346H-98.8512C-98.8512 383.531 -98.8512 383.715 -98.8512 383.715C-98.8512 383.899 -99.0353 383.899 -99.0353 383.715ZM-101.429 391.085C-101.429 390.901 -101.429 390.717 -101.429 390.717H-101.245C-101.245 390.901 -101.245 391.085 -101.245 391.085C-101.245 391.085 -101.245 391.085 -101.429 391.085ZM-102.534 394.955C-102.35 394.586 -102.165 394.218 -101.797 394.034C-101.981 394.402 -102.165 394.771 -102.534 394.955ZM-101.981 394.034C-101.981 394.034 -101.797 394.034 -101.981 394.034C-101.797 394.034 -101.797 394.034 -101.981 394.034ZM-85.5944 356.444C-88.5403 363.814 -90.9339 371.554 -93.3275 379.108C-94.4323 382.609 -96.0894 386.11 -97.3782 389.796C-98.8512 394.218 -100.324 398.64 -101.245 403.247C-101.429 403.984 -101.429 404.905 -102.35 405.642C-102.35 401.589 -101.981 397.903 -100.692 394.218C-98.8512 389.243 -97.3782 384.083 -95.537 378.924C-94.2481 375.423 -93.1434 371.738 -91.8545 368.237C-90.7498 365.473 -89.6451 362.709 -88.7245 359.761C-87.8038 356.997 -86.8832 353.864 -84.6738 351.285C-84.4896 353.496 -85.042 354.97 -85.5944 356.444ZM-83.569 349.626C-83.7532 348.705 -83.2008 348.705 -82.8325 348.521C-83.0167 348.889 -83.2008 349.258 -83.569 349.626ZM-82.6484 348.336C-82.8325 348.336 -82.8325 348.521 -82.6484 348.336V348.336ZM-87.4356 352.206C-87.4356 352.206 -87.6197 352.206 -87.4356 352.206C-87.6197 352.39 -87.8038 352.39 -87.8038 352.206V352.022C-87.6197 351.837 -87.4356 351.837 -87.4356 352.206ZM-23.361 257.495C-23.361 258.784 -22.9928 260.074 -23.9134 261.548C-24.6499 259.89 -24.0975 258.6 -23.361 257.495ZM-25.2022 268.55C-25.2022 268.735 -25.0181 268.735 -25.0181 268.919C-25.2022 272.236 -26.4911 275.184 -26.4911 278.501C-27.9641 276.289 -27.2276 271.499 -25.2022 268.55ZM-4.21227 263.391C-1.08219 261.364 1.49553 258.416 4.44149 256.02C8.67631 252.704 12.5429 249.203 16.5936 245.702C18.9872 243.491 22.1172 242.201 24.8791 240.358C27.0885 238.884 29.8504 237.41 30.9551 234.83C32.4281 231.145 35.0058 228.565 37.0312 225.433C38.1359 223.774 39.9771 222.669 40.7136 220.642C40.8977 220.273 41.0818 220.089 40.7136 219.721C40.1612 219.352 39.9771 219.905 39.793 220.089C37.9518 222.853 35.9264 225.064 33.7169 227.46C30.4028 231.145 27.4568 235.014 23.5902 238.147C21.1966 239.99 18.4348 241.832 15.3047 242.753C16.5936 240.911 17.8824 239.068 19.3554 237.226C20.8284 235.383 22.1172 233.54 23.5902 231.513C24.1426 230.776 24.5108 230.039 24.8791 229.302C25.0632 228.749 25.6156 228.012 24.8791 227.46C23.9585 226.907 23.7744 227.828 23.4061 228.381C22.3014 230.224 21.1966 232.25 20.276 234.093C18.803 236.673 16.7777 239.068 15.1206 241.464C13.0952 244.596 9.96516 246.807 6.83508 248.65C5.54623 249.571 4.25736 250.677 2.96851 251.598C2.41614 251.967 2.04789 252.519 1.12728 252.335C1.3114 250.861 2.23202 249.94 2.78439 248.834C5.17798 244.596 6.09859 239.99 7.20332 235.199C7.20332 234.83 7.20333 234.462 7.0192 234.277C6.46684 234.093 6.28272 234.277 5.91447 234.646C5.36211 235.199 5.17799 236.12 4.99387 237.041C4.25737 241.648 3.15263 246.07 0.574921 250.124C-2.18691 254.546 -5.13288 258.6 -9.3677 261.733C-11.393 263.207 -12.4978 265.418 -13.6025 267.629C-15.0755 270.393 -17.285 272.42 -19.3103 274.631C-19.4944 274.815 -19.6786 275.184 -20.2309 275C-20.9674 274.447 -20.0468 273.71 -20.415 272.973C-20.7833 273.341 -20.9674 273.894 -21.1515 274.447C-21.7039 277.395 -23.7292 279.606 -25.9387 282.37C-25.7546 279.79 -24.834 277.764 -24.2816 275.921C-23.1769 271.867 -21.5198 267.998 -20.0468 264.128C-19.6786 263.022 -19.3103 262.101 -19.1262 260.996C-19.1262 260.443 -19.3103 260.074 -19.6786 260.074C-20.2309 259.89 -20.415 260.443 -20.415 260.811C-21.3357 264.865 -23.1769 268.55 -24.0975 272.604C-24.4657 273.71 -24.2816 275.368 -25.7546 276.105C-24.4657 270.393 -23.361 264.681 -22.0722 258.969C-21.888 257.863 -21.7039 256.573 -22.2563 255.468C-22.6245 254.546 -22.4404 253.994 -21.888 253.256C-21.1515 252.151 -20.2309 251.045 -19.1262 250.493C-16.7326 249.203 -15.2596 247.176 -14.339 244.78C-13.4184 242.385 -11.7613 240.542 -9.55182 239.068C-9.18357 238.7 -8.63121 238.515 -8.44709 238.147C-4.58051 233.909 0.390793 231.882 5.73034 230.408C8.86042 229.671 11.8064 228.565 14.9365 227.644C16.5936 227.091 18.2507 226.354 19.5395 225.064C22.3014 221.932 25.9838 220.642 29.8504 219.536C35.3741 217.878 40.5295 215.482 45.5008 212.719C47.342 211.797 49.3674 211.244 51.3927 210.507C51.761 210.323 52.3133 210.139 52.4974 210.507C52.8657 211.06 52.4974 211.429 52.3133 211.797C51.3927 212.903 50.4721 214.008 49.5515 215.114C46.2373 219.168 43.2913 223.406 41.6342 228.565C40.7136 231.145 40.1612 233.909 39.4247 236.673C37.5835 242.938 34.2693 248.466 30.2186 253.625C28.3774 256.02 27.4568 258.784 25.9838 261.364C24.3267 264.497 23.7744 268.366 21.749 271.314C19.1713 275.184 16.2253 279.053 11.4381 280.343C9.96516 280.712 8.49218 281.449 7.38744 282.739C6.46684 283.66 5.17798 284.397 4.25737 285.318C1.12729 287.898 -2.55518 288.451 -6.42175 287.898C-7.15823 287.714 -7.71059 287.714 -8.44709 287.529C-11.7613 286.424 -15.0755 285.871 -18.5738 287.345C-18.9421 287.529 -19.4944 287.714 -20.0468 286.977C-18.9421 284.95 -17.1008 283.476 -15.2596 282.186C-12.1295 279.975 -8.99945 277.764 -5.86937 275.737C-6.42174 275.552 -6.97411 275.921 -7.52647 276.105C-10.6566 277.948 -13.9708 279.238 -16.9167 281.449C-17.1008 281.633 -17.4691 281.817 -18.0215 281.633C-18.3897 281.08 -18.0215 280.527 -17.6532 279.975C-15.9961 277.579 -14.7073 275 -13.4184 272.604C-12.866 271.683 -12.4978 270.946 -11.393 271.867C-10.6566 272.42 -10.1042 271.867 -9.73595 271.314C-5.31701 266.892 0.20668 264.865 5.91447 263.022C9.59692 261.917 13.2794 260.811 16.9618 259.706C17.6983 259.521 18.803 259.337 18.9872 258.047C18.4348 257.495 17.6983 257.863 17.1459 258.047C14.3841 258.969 11.4381 259.706 8.67631 260.443C4.25737 261.548 0.206673 263.575 -4.02814 265.418C-4.76463 265.786 -5.68525 266.708 -6.23762 265.786C-6.0535 264.312 -4.76464 263.944 -4.21227 263.391ZM-8.26297 264.128C-1.26632 257.495 5.54623 250.493 14.3841 245.517C13.2794 246.992 -4.94876 262.101 -8.26297 264.128ZM-24.6499 287.714C-25.5705 287.345 -25.3864 286.608 -25.0181 286.055C-22.9928 282.554 -20.5992 279.422 -17.6532 276.474C-18.3897 278.685 -19.8627 280.527 -20.7833 282.739C-21.3357 284.213 -21.5198 286.055 -22.6245 287.345C-23.1769 288.267 -23.9134 287.898 -24.6499 287.714ZM9.96516 193.739C10.3334 193.187 10.8858 192.634 12.3588 193.002C8.67631 196.688 4.99386 200.189 1.49554 203.505C1.31141 203.321 1.3114 203.321 1.12728 203.137C1.86377 202.216 2.60027 201.294 3.52087 200.557C5.73035 198.53 8.12394 196.319 9.96516 193.739ZM-78.5977 332.305C-78.966 332.674 -79.1501 333.227 -79.5183 333.595C-79.7025 332.858 -79.1501 332.674 -78.5977 332.305ZM-79.7025 333.964C-79.5183 333.964 -79.5183 333.78 -79.7025 333.964C-79.5183 333.78 -79.5183 333.964 -79.7025 333.964C-79.5183 333.964 -79.7025 333.964 -79.7025 333.964ZM-78.5977 332.305C-79.1501 330.831 -78.0454 329.726 -77.3089 328.62C-76.9406 330.094 -78.2295 331.016 -78.5977 332.305ZM-70.1281 314.248C-72.5217 317.749 -73.2582 322.171 -75.4676 325.856C-75.6518 326.225 -75.8359 326.778 -76.9406 327.33C-75.8359 324.382 -75.0994 322.171 -74.1788 319.776C-73.4423 317.564 -72.5217 315.538 -71.6011 313.511C-71.417 312.958 -70.8646 312.036 -70.1281 312.405C-69.5757 312.774 -69.7598 313.511 -70.1281 314.248ZM-32.7513 239.99C-33.3036 240.911 -33.6719 241.832 -34.0401 242.938C-34.7766 245.149 -35.6972 247.544 -36.9861 249.571C-39.0114 252.704 -40.4844 256.205 -41.7732 259.521C-45.6398 268.735 -49.6905 277.948 -54.2936 286.792C-57.2395 292.505 -60.5537 298.033 -64.4203 303.376C-65.8933 305.403 -66.8139 307.798 -67.9186 310.01C-68.1027 310.378 -68.2869 310.747 -69.0234 310.931C-69.3916 309.825 -69.2075 308.72 -68.6551 307.798C-66.4456 303.929 -64.7885 299.875 -63.1314 295.821C-59.6331 287.714 -55.7666 279.975 -51.1635 272.604C-49.5064 269.84 -47.481 267.445 -46.3763 264.312C-45.2716 260.996 -43.7986 257.679 -41.9574 254.731C-38.459 248.466 -36.9861 241.464 -33.6719 235.199C-31.4624 230.961 -29.2529 226.907 -26.6752 223.037C-25.5705 221.379 -24.6499 219.721 -23.7292 218.062C-22.0721 215.298 -20.5992 212.719 -18.9421 209.955C-18.5738 209.218 -18.2056 208.665 -17.285 208.48C-16.7326 209.033 -17.1008 209.402 -17.4691 209.77C-20.0468 214.745 -22.9928 219.352 -26.1228 223.959C-27.5958 226.17 -28.8847 228.565 -29.6212 231.145C-29.9894 232.435 -30.3577 233.909 -31.4624 234.83C-31.8306 235.199 -32.383 235.936 -32.0148 236.489C-31.2783 238.331 -32.1989 239.068 -32.7513 239.99ZM94.6615 129.432C95.7662 131.458 95.7662 131.827 93.925 132.564C85.8236 136.065 78.827 141.224 71.4621 146.015C68.332 148.042 65.386 150.069 62.44 152.464C60.4147 154.307 57.837 155.597 55.6275 157.071C53.0498 158.914 50.6562 160.756 48.2626 162.783C46.7897 164.073 45.3167 165.179 43.6596 166.284C46.4214 160.941 84.903 133.485 94.6615 129.432ZM44.0278 184.342C37.3994 185.816 30.771 187.29 24.1426 188.949C22.1172 189.501 20.276 190.791 17.8824 191.16C18.9872 188.949 21.0125 187.659 23.222 187.29C28.5615 186.185 33.5328 184.342 38.8724 183.236C40.8977 182.868 42.9231 182.499 44.7643 182.131C48.2626 181.394 51.761 181.025 55.0751 180.104C60.4147 178.814 65.9384 178.814 71.4621 178.998C70.5414 179.735 69.4367 180.104 68.332 180.104C60.2306 181.21 52.1292 182.684 44.0278 184.342ZM72.7509 179.183C74.5921 177.893 76.8016 178.63 79.1952 178.077C77.5381 179.367 75.5127 179.735 72.7509 179.183ZM80.8523 178.814C80.4841 178.814 80.4841 178.63 80.4841 178.261C80.4841 178.077 80.6682 177.709 80.8523 177.709C81.957 177.709 83.0618 177.708 84.1665 178.261C83.2459 178.998 82.1411 178.998 80.8523 178.814ZM86.5601 178.261C86.7442 178.077 86.9283 178.077 87.1125 178.077C87.2966 178.077 87.2966 178.261 87.1125 178.446C86.9283 178.63 86.7442 178.446 86.5601 178.261ZM89.3219 178.261C90.2425 177.893 91.1631 177.893 92.0838 178.446C91.1631 178.998 90.2425 178.998 89.3219 178.261ZM136.273 177.524C135.905 177.524 135.537 177.524 135.353 177.156C135.168 176.603 135.721 176.419 136.089 176.419C136.457 176.419 136.826 176.419 137.194 176.787C137.01 177.156 136.641 177.524 136.273 177.524ZM141.797 176.05C141.429 176.05 141.06 175.866 141.06 175.497C141.06 175.129 141.244 174.76 141.613 174.76C143.454 174.576 145.295 174.576 147.136 174.392C147.136 174.576 147.136 174.76 147.32 175.129C145.479 175.497 143.638 175.682 141.797 176.05ZM150.082 174.576C150.082 174.392 150.082 174.392 149.898 174.208C150.082 174.208 150.082 174.208 150.266 174.208C150.266 174.392 150.266 174.392 150.082 174.576C150.266 174.576 150.082 174.576 150.082 174.576ZM141.244 202.031C141.429 202.031 141.429 202.216 141.244 202.216C141.244 202.216 141.06 202.216 141.244 202.031C141.06 202.216 141.244 202.031 141.244 202.031ZM137.746 191.344C136.273 192.081 134.984 190.791 133.511 190.791C132.775 190.791 132.038 189.686 131.854 188.212C134.064 188.949 135.905 189.501 137.93 190.054C138.298 190.238 138.483 190.423 138.483 190.791C138.298 191.16 137.93 191.16 137.746 191.344ZM140.324 191.16C140.14 190.975 140.14 190.791 140.14 190.791C140.508 190.423 140.876 190.423 141.244 190.607C141.429 190.607 141.429 190.975 141.429 190.975C141.06 191.344 140.692 191.344 140.324 191.16ZM122.648 167.205C121.912 167.574 121.359 168.127 120.991 168.68C120.439 169.232 119.702 169.785 118.597 169.417C119.334 166.837 120.439 164.442 121.727 162.415C122.096 161.862 122.832 161.493 123.385 161.309C125.594 160.572 127.251 159.098 128.356 157.071C129.092 155.965 129.829 154.676 131.118 154.123C131.67 154.86 131.118 155.228 130.934 155.597C130.197 156.887 129.461 158.177 129.276 159.835C129.092 161.125 128.356 162.415 127.251 163.336C125.962 164.626 124.673 166.284 122.648 167.205ZM131.302 161.493C132.222 157.44 134.432 153.754 134.8 149.516C135.537 149.7 135.721 150.069 135.721 150.438C135.721 153.017 136.641 155.781 134.8 158.177C134.616 158.361 134.616 158.729 134.616 159.098C134.064 161.309 134.064 161.309 131.302 161.493ZM136.457 158.177C136.089 157.44 136.457 156.887 137.01 155.965C137.378 157.071 137.562 157.624 136.457 158.177ZM138.298 160.756C138.114 160.572 138.298 160.388 138.483 160.388C138.667 160.388 138.851 160.388 139.035 160.388C139.035 160.572 139.219 160.756 139.035 160.756C138.851 160.941 138.483 160.941 138.298 160.756ZM141.981 157.071C141.613 156.518 141.981 156.15 142.349 156.15C144.375 155.413 146.4 154.123 148.609 154.86C146.952 156.15 144.559 156.334 142.717 157.255C142.717 157.44 142.165 157.44 141.981 157.071ZM149.898 154.86L150.082 154.676C150.082 154.86 149.898 154.676 149.898 154.86ZM143.454 159.098V158.914C143.638 158.545 143.822 158.545 144.19 158.729C144.006 158.914 143.822 159.098 143.454 159.098ZM132.959 168.68C132.775 167.943 132.959 167.574 133.143 167.39C135.168 167.021 137.01 165.916 139.219 165.916C143.086 166.1 146.952 166.468 150.819 166.284C151.371 166.284 151.739 166.468 152.292 166.837C145.848 168.311 139.403 166.837 132.959 168.68ZM149.898 159.835C149.53 159.835 148.978 159.651 148.978 159.098C148.978 158.545 149.346 158.361 149.898 158.361C151.187 158.177 152.66 157.44 154.501 157.808C153.212 159.466 151.739 160.019 149.898 159.835ZM147.32 162.415C146.952 162.415 146.768 162.23 146.4 161.678C146.584 161.309 146.952 161.125 147.32 161.125C147.873 160.941 148.609 160.572 149.162 160.941C149.346 161.125 149.346 161.309 149.162 161.678C148.793 162.415 148.057 162.599 147.32 162.415ZM161.682 162.046C161.13 162.23 160.209 162.415 159.841 162.783C157.447 164.994 154.87 163.704 151.739 163.152C155.238 159.651 158.552 156.887 161.866 153.754C160.577 154.123 159.288 154.86 158.184 155.781C157.447 156.334 156.895 156.702 155.974 156.15C155.422 155.781 154.685 156.15 153.949 156.334C151.003 157.071 148.057 157.624 145.111 158.729C144.743 158.914 144.559 158.914 144.19 158.729C145.111 157.624 146.584 156.887 147.873 156.518C149.53 155.965 151.003 155.413 152.66 154.86C151.371 153.57 149.714 154.123 147.873 153.939C149.346 152.464 151.003 152.833 152.476 151.912C147.873 151.543 143.822 153.017 139.587 153.939C140.324 152.28 141.797 151.175 143.086 150.069C146.952 147.121 151.187 144.725 155.606 142.514C157.631 141.593 158.736 139.935 159.104 137.908C159.473 136.434 159.473 134.959 159.841 133.485C160.209 131.643 160.946 130.721 162.787 130.537C164.812 130.353 167.022 130.537 169.047 130.721C169.968 130.721 170.52 131.274 170.704 132.011C171.809 134.038 173.282 135.328 175.675 135.328C176.964 135.512 177.701 136.249 178.437 137.355C179.726 139.935 181.383 141.961 183.593 143.804C185.066 144.91 185.618 146.752 185.986 148.595C186.17 149.7 185.618 150.438 185.066 150.99C183.777 152.28 182.672 153.57 181.751 155.044C180.463 156.702 178.621 157.624 176.596 158.361C173.65 159.282 170.888 160.019 167.942 160.756C165.549 161.125 163.523 161.309 161.682 162.046ZM153.949 176.05C152.844 176.234 151.739 176.603 150.266 176.05C151.555 175.313 152.476 174.76 153.765 174.76C154.133 174.76 154.685 174.945 154.685 175.313C154.501 175.682 154.317 175.866 153.949 176.05ZM151.003 179.735C150.819 179.551 150.819 179.367 151.187 179.183C151.371 179.183 151.555 179.183 151.555 179.367C151.555 179.367 151.555 179.551 151.371 179.735C151.187 179.735 151.003 179.735 151.003 179.735ZM192.799 186C192.246 186.369 191.694 186.369 191.326 185.816C191.142 185.632 191.142 185.632 190.957 185.448C186.723 181.578 187.275 182.499 190.221 178.63C191.142 177.524 191.326 176.603 190.773 175.497C190.037 174.023 190.221 172.365 190.773 170.891C192.246 166.653 190.957 163.152 187.091 160.756C185.986 160.019 184.881 159.466 183.777 158.914C183.408 158.729 182.856 158.729 182.672 159.098C182.488 159.466 182.672 159.835 182.856 160.019C183.408 160.756 184.145 161.309 184.881 161.862C186.17 162.783 187.459 163.889 188.38 165.179C189.484 166.653 189.669 168.127 188.932 169.601C188.196 171.259 188.012 173.286 188.38 175.129C188.748 176.787 188.012 178.077 187.091 179.367C185.986 180.657 184.881 181.947 183.593 183.052C181.935 184.526 180.278 185.448 177.885 183.973C176.78 183.421 175.307 183.236 173.65 184.526C171.072 186.737 163.892 187.843 161.13 184.895C159.657 183.421 157.631 182.868 155.79 182.131C155.238 181.947 154.685 181.947 154.501 181.394C154.317 180.657 154.317 179.735 154.317 178.998C154.317 178.814 154.501 178.63 154.685 178.63C157.447 178.63 159.288 176.603 161.866 175.866C163.155 175.497 164.628 175.129 166.101 174.945C169.968 174.76 173.834 174.576 177.701 175.313C177.885 175.313 178.253 175.313 178.805 175.313C177.701 174.392 176.78 174.208 175.859 174.023C170.704 172.918 165.549 173.102 160.393 174.208C159.841 174.392 159.288 174.576 158.92 174.392C157.263 173.286 155.422 173.839 153.765 173.47C154.87 171.812 156.711 171.628 158.368 171.075C160.946 170.338 163.339 169.048 165.733 167.758C165.917 167.758 166.101 167.574 166.101 167.574C166.653 167.206 167.206 166.653 166.837 165.916C166.469 165.179 165.733 165.363 165.18 165.731C163.707 167.021 162.234 166.468 160.577 166.284C160.393 166.284 160.209 165.916 160.025 165.916C160.393 164.81 161.498 164.81 162.234 164.442C164.996 162.967 167.942 162.415 170.888 161.678C173.098 161.125 175.491 161.309 177.332 159.466C178.069 158.729 179.358 158.729 180.463 158.361C181.015 158.177 181.935 157.992 182.304 157.44C183.961 155.044 186.17 155.781 188.38 155.965C190.405 156.15 192.246 156.518 193.535 158.545C194.272 159.651 195.561 160.572 196.481 161.678C197.77 163.336 198.322 165.179 197.586 167.39C196.849 169.417 196.481 171.444 197.586 173.839C199.059 178.446 196.849 183.052 192.799 186Z" fill="#F6623E"/>
</svg>
