<svg width="18" height="24" viewBox="0 0 18 24" fill="none" xmlns="http://www.w3.org/2000/svg">
<path d="M15.1107 6.64357H14.227V5.3685C14.2269 2.40813 11.8186 0 8.85831 0C5.89805 0 3.48959 2.40847 3.48959 5.3685V6.64357H2.60588C1.16904 6.64357 0 7.81261 0 9.24944V21.3941C0 22.8313 1.16904 24 2.60588 24H15.1106C16.5475 24 17.7165 22.8312 17.7165 21.3941V9.24944C17.7165 7.81261 16.5475 6.64357 15.1107 6.64357ZM5.18963 5.3685C5.18963 3.34569 6.83528 1.70005 8.85831 1.70005C10.8811 1.70005 12.5268 3.34569 12.5268 5.3685V6.64357H5.18963V5.3685ZM16.0166 21.3941C16.0166 21.894 15.61 22.2999 15.1107 22.2999H2.60577C2.10626 22.2999 1.69994 21.8936 1.69994 21.3941V9.24944C1.69994 8.74994 2.10626 8.34361 2.60577 8.34361H3.48947V9.53567C3.21632 9.77363 3.04013 10.1202 3.04013 10.5112C3.04013 11.2289 3.62186 11.8109 4.33955 11.8109C5.05702 11.8109 5.63897 11.2289 5.63897 10.5112C5.63897 10.1205 5.46268 9.77397 5.18963 9.53567V8.34361H12.5268V9.53567C12.2536 9.77363 12.0774 10.1202 12.0774 10.5112C12.0774 11.2289 12.6591 11.8109 13.3768 11.8109C14.0945 11.8109 14.6763 11.2289 14.6763 10.5112C14.6763 10.1205 14.5 9.77363 14.2269 9.53567V8.34361H15.1106C15.6101 8.34361 16.0165 8.74994 16.0165 9.24944V21.3941H16.0166Z" fill="#454545"/>
</svg>
